<svg width="30" height="30" viewBox="0 0 30 30" fill="none" xmlns="http://www.w3.org/2000/svg">
<path d="M17.4688 14.8125C17.4688 16.3652 16.209 17.625 14.6562 17.625C13.1035 17.625 11.8438 16.3652 11.8438 14.8125C11.8438 13.2598 13.1035 12 14.6562 12C16.209 12 17.4688 13.2598 17.4688 14.8125ZM24.5 12C22.9473 12 21.6875 13.2598 21.6875 14.8125C21.6875 16.3652 22.9473 17.625 24.5 17.625C26.0527 17.625 27.3125 16.3652 27.3125 14.8125C27.3125 13.2598 26.0527 12 24.5 12ZM4.8125 12C3.25977 12 2 13.2598 2 14.8125C2 16.3652 3.25977 17.625 4.8125 17.625C6.36523 17.625 7.625 16.3652 7.625 14.8125C7.625 13.2598 6.36523 12 4.8125 12Z" fill="black"/>
</svg>
