<svg width="50" height="44" viewBox="0 0 50 44" fill="none" xmlns="http://www.w3.org/2000/svg">
<path d="M44.7653 3.28266C39.1207 -1.46344 30.4 -0.750545 24.9996 4.7475C19.5993 -0.750545 10.8786 -1.4732 5.23402 3.28266C-2.10973 9.4643 -1.03551 19.5424 4.19886 24.8842L21.3278 42.3354C22.3043 43.3315 23.6129 43.8881 24.9996 43.8881C26.3961 43.8881 27.695 43.3413 28.6715 42.3452L45.8004 24.894C51.025 19.5522 52.1188 9.47406 44.7653 3.28266ZM42.4606 21.5932L25.3317 39.0444C25.0973 39.2788 24.902 39.2788 24.6676 39.0444L7.53871 21.5932C3.97425 17.9604 3.2516 11.0854 8.2516 6.87641C12.0504 3.68305 17.9098 4.16156 21.5817 7.9018L24.9996 11.3881L28.4176 7.9018C32.109 4.14203 37.9684 3.68305 41.7477 6.86664C46.7379 11.0756 45.9957 17.9897 42.4606 21.5932Z" fill="black"/>
</svg>
