<svg width="20" height="20" viewBox="0 0 20 20" fill="none" xmlns="http://www.w3.org/2000/svg">
<g clip-path="url(#clip0_31_2154)">
<path d="M17.9061 2.51312C15.6483 0.614687 12.16 0.899843 9.99986 3.09906C7.8397 0.899843 4.35142 0.61078 2.09361 2.51312C-0.84389 4.98578 -0.414203 9.01703 1.67955 11.1537L8.53111 18.1342C8.92173 18.5327 9.44517 18.7553 9.99986 18.7553C10.5585 18.7553 11.078 18.5366 11.4686 18.1381L18.3202 11.1577C20.41 9.02094 20.8475 4.98969 17.9061 2.51312ZM16.9842 9.83734L10.1327 16.8178C10.0389 16.9116 9.9608 16.9116 9.86705 16.8178L3.01548 9.83734C1.5897 8.38422 1.30064 5.63422 3.30064 3.95062C4.82017 2.67328 7.16392 2.86469 8.63267 4.36078L9.99986 5.75531L11.367 4.36078C12.8436 2.85687 15.1874 2.67328 16.6991 3.94672C18.6952 5.63031 18.3983 8.39594 16.9842 9.83734Z" fill="#F5F5F5"/>
</g>
<defs>
<clipPath id="clip0_31_2154">
<rect width="20" height="20" fill="white"/>
</clipPath>
</defs>
</svg>
