<svg width="50" height="38" viewBox="0 0 50 38" fill="none" xmlns="http://www.w3.org/2000/svg">
<path d="M45.3125 0.5H4.6875C2.09863 0.5 0 2.59863 0 5.1875V33.3125C0 35.9014 2.09863 38 4.6875 38H45.3125C47.9014 38 50 35.9014 50 33.3125V5.1875C50 2.59863 47.9014 0.5 45.3125 0.5ZM45.3125 5.1875V9.17236C43.1229 10.9555 39.632 13.7281 32.1692 19.5718C30.5246 20.8654 27.2668 23.9733 25 23.9371C22.7336 23.9737 19.4747 20.8649 17.8308 19.5718C10.3691 13.729 6.87744 10.9558 4.6875 9.17236V5.1875H45.3125ZM4.6875 33.3125V15.1873C6.9252 16.9696 10.0985 19.4707 14.9354 23.2582C17.0698 24.9384 20.8078 28.6475 25 28.6249C29.1716 28.6475 32.8622 24.9922 35.0638 23.259C39.9005 19.4716 43.0747 16.9698 45.3125 15.1874V33.3125H4.6875Z" fill="url(#paint0_angular_63_1724)"/>
<defs>
<radialGradient id="paint0_angular_63_1724" cx="0" cy="0" r="1" gradientUnits="userSpaceOnUse" gradientTransform="translate(16.2406 19.2224) rotate(140.909) scale(15.4626 16.7759)">
<stop offset="0.112001" stop-color="#A2EDFD" stop-opacity="0.9"/>
<stop offset="0.528481" stop-color="#CE66AE"/>
</radialGradient>
</defs>
</svg>
