<svg width="29" height="32" viewBox="0 0 29 32" fill="none" xmlns="http://www.w3.org/2000/svg">
<path d="M28.4426 22.4355C27.192 21.1786 24.8519 19.2877 24.8519 13.0938C24.8519 8.38926 21.3253 4.62324 16.5701 3.6993V2.4375C16.5701 1.36764 15.6432 0.5 14.5 0.5C13.3568 0.5 12.4299 1.36764 12.4299 2.4375V3.6993C7.67466 4.62324 4.14807 8.38926 4.14807 13.0938C4.14807 19.2877 1.80801 21.1786 0.557387 22.4355C0.168995 22.8261 -0.00319184 23.2929 4.47549e-05 23.75C0.00716527 24.743 0.840265 25.6875 2.07794 25.6875H26.9221C28.1597 25.6875 28.9935 24.743 29 23.75C29.0032 23.2929 28.831 22.8254 28.4426 22.4355ZM4.37139 22.7812C5.74501 21.0878 7.24679 18.2808 7.25391 13.1289C7.25391 13.1168 7.25002 13.1059 7.25002 13.0938C7.25002 9.34832 10.4957 6.3125 14.5 6.3125C18.5043 6.3125 21.75 9.34832 21.75 13.0938C21.75 13.1059 21.7461 13.1168 21.7461 13.1289C21.7532 18.2814 23.255 21.0884 24.6286 22.7812H4.37139ZM14.5 31.5C16.7863 31.5 18.6409 29.7653 18.6409 27.625H10.3591C10.3591 29.7653 12.2137 31.5 14.5 31.5Z" fill="url(#paint0_linear_63_799)"/>
<defs>
<linearGradient id="paint0_linear_63_799" x1="0" y1="16" x2="29" y2="16" gradientUnits="userSpaceOnUse">
<stop stop-color="#A2EDFD" stop-opacity="0.9"/>
<stop offset="1" stop-color="#FFE8F8"/>
</linearGradient>
</defs>
</svg>
