<svg width="20" height="27" viewBox="0 0 20 27" fill="none" xmlns="http://www.w3.org/2000/svg">
<path d="M19.1667 11.6667H11.6667V4.16668C11.6667 3.70626 11.2937 3.33334 10.8333 3.33334H9.16667C8.70625 3.33334 8.33333 3.70626 8.33333 4.16668V11.6667H0.833333C0.372917 11.6667 0 12.0396 0 12.5V14.1667C0 14.6271 0.372917 15 0.833333 15H8.33333V22.5C8.33333 22.9604 8.70625 23.3333 9.16667 23.3333H10.8333C11.2937 23.3333 11.6667 22.9604 11.6667 22.5V15H19.1667C19.6271 15 20 14.6271 20 14.1667V12.5C20 12.0396 19.6271 11.6667 19.1667 11.6667Z" fill="#F5F5F5"/>
</svg>
