<svg width="32" height="33" viewBox="0 0 32 33" fill="none" xmlns="http://www.w3.org/2000/svg">
<g clip-path="url(#clip0_60_725)">
<path d="M31.7812 29.3062L24.1938 21.7188C24.05 21.575 23.8625 21.5 23.6625 21.5H22.8375C24.8062 19.2188 26 16.25 26 13C26 5.81875 20.1813 0 13 0C5.81875 0 0 5.81875 0 13C0 20.1813 5.81875 26 13 26C16.25 26 19.2188 24.8062 21.5 22.8375V23.6625C21.5 23.8625 21.5812 24.05 21.7188 24.1938L29.3062 31.7812C29.6 32.075 30.075 32.075 30.3687 31.7812L31.7812 30.3687C32.075 30.075 32.075 29.6 31.7812 29.3062ZM13 23C7.475 23 3 18.525 3 13C3 7.475 7.475 3 13 3C18.525 3 23 7.475 23 13C23 18.525 18.525 23 13 23Z" fill="#040623"/>
</g>
<defs>
<clipPath id="clip0_60_725">
<rect width="32" height="32" fill="white" transform="translate(0 0.25)"/>
</clipPath>
</defs>
</svg>
