<svg width="22" height="21" viewBox="0 0 22 21" fill="none" xmlns="http://www.w3.org/2000/svg">
<path d="M19.9757 7.35443L14.514 6.56528L12.0729 1.65995C11.6355 0.785584 10.3682 0.774469 9.9271 1.65995L7.48599 6.56528L2.02431 7.35443C1.04488 7.49522 0.652355 8.69191 1.36263 9.37733L5.31403 13.1934L4.37945 18.5841C4.21123 19.5585 5.24674 20.2884 6.11403 19.8326L11 17.2874L15.886 19.8326C16.7533 20.2846 17.7888 19.5585 17.6205 18.5841L16.686 13.1934L20.6374 9.37733C21.3476 8.69191 20.9551 7.49522 19.9757 7.35443ZM14.7607 12.571L15.6467 17.6986L11 15.2793L6.35328 17.6986L7.23926 12.571L3.47852 8.94014L8.67477 8.19175L11 3.52353L13.3252 8.19175L18.5215 8.94014L14.7607 12.571Z" fill="#FFE8F8" stroke="#FFE8F8" stroke-width="0.6"/>
</svg>
