<svg width="40" height="37" viewBox="0 0 40 37" fill="none" xmlns="http://www.w3.org/2000/svg">
<path d="M37.5073 12.3911L26.8542 10.8518L22.0927 1.28383C21.2396 -0.421642 18.7677 -0.443322 17.9073 1.28383L13.1459 10.8518L2.49273 12.3911C0.582316 12.6657 -0.183309 14.9998 1.20211 16.3368L8.9094 23.7801L7.08648 34.2948C6.75836 36.1954 8.77815 37.619 10.4698 36.7301L20 31.7655L29.5302 36.7301C31.2219 37.6118 33.2417 36.1954 32.9136 34.2948L31.0906 23.7801L38.7979 16.3368C40.1834 14.9998 39.4177 12.6657 37.5073 12.3911ZM27.3354 22.5661L29.0636 32.5676L20 27.8487L10.9365 32.5676L12.6646 22.5661L5.32919 15.484L15.4646 14.0243L20 4.91879L24.5354 14.0243L34.6709 15.484L27.3354 22.5661Z" fill="black"/>
</svg>
