<svg width="52" height="67" viewBox="0 0 52 67" fill="none" xmlns="http://www.w3.org/2000/svg">
<path d="M13.6843 28.5432C13.6843 29.0271 13.6948 29.4584 13.7158 29.8372C13.7158 30.0055 13.7158 30.1633 13.7158 30.3105C13.7369 30.4578 13.7474 30.5946 13.7474 30.7208C13.7474 30.8681 13.7579 31.0048 13.779 31.1311C13.779 31.6571 13.579 31.9201 13.179 31.9201C12.9684 31.9201 12.8105 31.8359 12.7053 31.6676C12.6 31.4993 12.5474 31.3415 12.5474 31.1942C12.5474 31.068 12.5474 30.8786 12.5474 30.6261C12.5684 30.3737 12.5895 30.0896 12.6105 29.774C12.6316 29.4584 12.6421 29.1428 12.6421 28.8273C12.6632 28.5117 12.6737 28.2381 12.6737 28.0067C12.6737 27.6701 12.6632 27.386 12.6421 27.1546C12.6421 26.9232 12.6421 26.7023 12.6421 26.4919C12.6421 26.2604 12.6316 26.029 12.6105 25.7976C12.6105 25.5661 12.6105 25.2821 12.6105 24.9455C12.6105 24.6509 12.6421 24.3984 12.7053 24.188C12.7684 23.9776 12.9369 23.8724 13.2106 23.8724C13.5053 23.8724 13.6948 24.0723 13.779 24.4721C13.8632 24.8508 13.9053 25.2716 13.9053 25.7344C13.9053 26.3867 14.0527 27.0284 14.3474 27.6596C14.6632 28.2907 15.1054 28.8483 15.6738 29.3322C16.2633 29.8161 16.9791 30.2159 17.8213 30.5315C18.6845 30.826 19.674 30.9733 20.7898 30.9733C21.5477 30.9733 22.2846 30.8786 23.0004 30.6893C23.7162 30.4999 24.3478 30.2369 24.8952 29.9003C25.4637 29.5426 25.9163 29.1113 26.2532 28.6063C26.6111 28.0804 26.79 27.4912 26.79 26.839C26.79 26.1868 26.5163 25.6082 25.9689 25.1033C25.4216 24.5983 24.7373 24.146 23.9162 23.7462C23.1162 23.3254 22.253 22.9362 21.3267 22.5785C20.4214 22.2208 19.5897 21.8632 18.8318 21.5055C18.1581 21.1899 17.4739 20.8322 16.7791 20.4325C16.0843 20.0327 15.4422 19.5278 14.8527 18.9176C14.2632 18.2865 13.779 17.529 13.4 16.6454C13.0421 15.7407 12.8632 14.6256 12.8632 13.3001C12.8632 12.1219 13.1053 11.0278 13.5895 10.0179C14.0948 9.00803 14.7369 8.13489 15.5159 7.3985C16.2949 6.64108 17.1686 6.05197 18.1371 5.63118C19.1055 5.21039 20.0634 5 21.0109 5C22.5478 5 23.8531 5.42079 24.9268 6.26237C26.0005 7.08291 26.8532 8.4084 27.4848 10.2388C27.4006 8.91335 27.3374 7.93501 27.2953 7.30383C27.2532 6.6516 27.2321 6.31497 27.2321 6.29393C27.2321 5.76794 27.4322 5.50495 27.8322 5.50495C28.0427 5.50495 28.2006 5.58911 28.3059 5.75742C28.4111 5.92574 28.4638 6.08353 28.4638 6.23081C28.4638 6.96719 28.4427 7.73514 28.4006 8.53464C28.3585 9.3131 28.3375 10.081 28.3375 10.8385C28.3375 11.5117 28.348 12.0903 28.369 12.5742C28.3901 13.0581 28.4006 13.6367 28.4006 14.31C28.4006 14.6045 28.369 14.857 28.3059 15.0674C28.2427 15.2778 28.0743 15.383 27.8006 15.383C27.5058 15.383 27.3164 15.1936 27.2321 14.8149C27.169 14.4152 27.1374 13.9839 27.1374 13.521C27.0532 12.3849 26.8532 11.3539 26.5374 10.4282C26.2216 9.48142 25.8005 8.68191 25.2742 8.02969C24.7689 7.35642 24.1583 6.84096 23.4425 6.48329C22.7478 6.12561 21.9793 5.94678 21.1372 5.94678C20.1477 5.94678 19.2213 6.16769 18.3581 6.60952C17.516 7.03031 16.7791 7.59838 16.1475 8.31372C15.537 9.02907 15.0527 9.84961 14.6948 10.7753C14.3369 11.68 14.158 12.6163 14.158 13.5841C14.158 14.6361 14.2948 15.5198 14.5685 16.2351C14.8632 16.9504 15.2422 17.5711 15.7054 18.0971C16.1896 18.602 16.737 19.0334 17.3476 19.391C17.9581 19.7277 18.5792 20.0433 19.2108 20.3378C19.8424 20.6324 20.6529 20.969 21.6425 21.3477C22.653 21.7264 23.632 22.1788 24.5794 22.7048C25.5479 23.2307 26.369 23.8304 27.0427 24.5036C27.7374 25.1769 28.0848 25.9554 28.0848 26.839C28.0848 27.7648 27.8427 28.5537 27.3585 29.206C26.8742 29.8372 26.2637 30.3631 25.5268 30.7839C24.811 31.1837 24.032 31.4677 23.1899 31.636C22.3477 31.8254 21.5793 31.9201 20.8845 31.9201C20.2108 31.9201 19.5161 31.8569 18.8002 31.7307C18.1055 31.6045 17.4318 31.4151 16.7791 31.1626C16.1265 30.8891 15.5264 30.542 14.979 30.1212C14.4527 29.6794 14.0211 29.1534 13.6843 28.5432Z" fill="url(#paint0_diamond_47_1163)"/>
<path d="M25.0334 58.6232C25.0334 59.1071 25.0439 59.5384 25.065 59.9171C25.065 60.0854 25.065 60.2432 25.065 60.3905C25.086 60.5378 25.0965 60.6745 25.0965 60.8007C25.0965 60.948 25.1071 61.0848 25.1281 61.211C25.1281 61.737 24.9281 62 24.5281 62C24.3176 62 24.1597 61.9158 24.0544 61.7475C23.9491 61.5792 23.8965 61.4214 23.8965 61.2741C23.8965 61.1479 23.8965 60.9585 23.8965 60.7061C23.9175 60.4536 23.9386 60.1696 23.9597 59.854C23.9807 59.5384 23.9912 59.2228 23.9912 58.9072C24.0123 58.5916 24.0228 58.3181 24.0228 58.0866C24.0228 57.75 24.0123 57.466 23.9912 57.2345C23.9912 57.0031 23.9912 56.7822 23.9912 56.5718C23.9912 56.3404 23.9807 56.1089 23.9597 55.8775C23.9597 55.6461 23.9597 55.362 23.9597 55.0254C23.9597 54.7308 23.9912 54.4784 24.0544 54.268C24.1176 54.0576 24.286 53.9524 24.5597 53.9524C24.8544 53.9524 25.0439 54.1523 25.1281 54.552C25.2123 54.9307 25.2544 55.3515 25.2544 55.8144C25.2544 56.4666 25.4018 57.1083 25.6966 57.7395C26.0124 58.3707 26.4545 58.9282 27.0229 59.4121C27.6124 59.896 28.3282 60.2958 29.1704 60.6114C30.0336 60.9059 31.0231 61.0532 32.1389 61.0532C32.8968 61.0532 33.6337 60.9585 34.3495 60.7692C35.0653 60.5798 35.697 60.3168 36.2443 59.9802C36.8128 59.6225 37.2654 59.1912 37.6023 58.6863C37.9602 58.1603 38.1392 57.5712 38.1392 56.919C38.1392 56.2667 37.8655 55.6881 37.3181 55.1832C36.7707 54.6782 36.0864 54.2259 35.2654 53.8261C34.4653 53.4054 33.6021 53.0161 32.6758 52.6585C31.7705 52.3008 30.9389 51.9431 30.1809 51.5854C29.5072 51.2698 28.823 50.9122 28.1282 50.5124C27.4335 50.1127 26.7913 49.6077 26.2018 48.9976C25.6123 48.3664 25.1281 47.609 24.7492 46.7253C24.3912 45.8206 24.2123 44.7055 24.2123 43.38C24.2123 42.2018 24.4544 41.1078 24.9386 40.0979C25.4439 39.088 26.0861 38.2148 26.865 37.4784C27.644 36.721 28.5177 36.1319 29.4862 35.7111C30.4546 35.2903 31.4126 35.0799 32.36 35.0799C33.8969 35.0799 35.2022 35.5007 36.2759 36.3423C37.3496 37.1628 38.2023 38.4883 38.8339 40.3188C38.7497 38.9933 38.6865 38.0149 38.6444 37.3838C38.6023 36.7315 38.5813 36.3949 38.5813 36.3739C38.5813 35.8479 38.7813 35.5849 39.1813 35.5849C39.3918 35.5849 39.5497 35.669 39.655 35.8374C39.7603 36.0057 39.8129 36.1635 39.8129 36.3107C39.8129 37.0471 39.7918 37.8151 39.7497 38.6146C39.7076 39.393 39.6866 40.161 39.6866 40.9184C39.6866 41.5917 39.6971 42.1703 39.7182 42.6542C39.7392 43.1381 39.7497 43.7167 39.7497 44.3899C39.7497 44.6845 39.7182 44.937 39.655 45.1473C39.5918 45.3577 39.4234 45.4629 39.1497 45.4629C38.855 45.4629 38.6655 45.2736 38.5813 44.8949C38.5181 44.4951 38.4865 44.0638 38.4865 43.6009C38.4023 42.4648 38.2023 41.4339 37.8865 40.5081C37.5707 39.5614 37.1496 38.7618 36.6233 38.1096C36.118 37.4364 35.5075 36.9209 34.7917 36.5632C34.0969 36.2055 33.3284 36.0267 32.4863 36.0267C31.4968 36.0267 30.5704 36.2476 29.7072 36.6895C28.8651 37.1102 28.1282 37.6783 27.4966 38.3937C26.8861 39.109 26.4019 39.9295 26.0439 40.8553C25.686 41.76 25.5071 42.6962 25.5071 43.6641C25.5071 44.716 25.6439 45.5997 25.9176 46.315C26.2124 47.0304 26.5913 47.651 27.0545 48.177C27.5387 48.682 28.0861 49.1133 28.6967 49.471C29.3072 49.8076 29.9283 50.1232 30.5599 50.4177C31.1915 50.7123 32.0021 51.0489 32.9916 51.4276C34.0021 51.8064 34.9811 52.2587 35.9285 52.7847C36.897 53.3107 37.7181 53.9103 38.3918 54.5836C39.0866 55.2568 39.4339 56.0353 39.4339 56.919C39.4339 57.8447 39.1918 58.6337 38.7076 59.2859C38.2234 59.9171 37.6128 60.4431 36.8759 60.8639C36.1601 61.2636 35.3811 61.5476 34.539 61.716C33.6969 61.9053 32.9284 62 32.2337 62C31.5599 62 30.8652 61.9369 30.1494 61.8106C29.4546 61.6844 28.7809 61.495 28.1282 61.2426C27.4756 60.9691 26.8756 60.6219 26.3282 60.2011C25.8018 59.7593 25.3702 59.2333 25.0334 58.6232Z" fill="url(#paint1_diamond_47_1163)"/>
<path d="M10.3912 16.5646H42.2458V33.5897H10.3912V16.5646Z" fill="url(#paint2_diamond_47_1163)"/>
<path d="M10.3912 33.5897H42.2458V50.6148H10.3912V33.5897Z" fill="url(#paint3_diamond_47_1163)"/>
<path d="M4.02031 14.6493H10.3912V21.0337H4.02031V14.6493Z" fill="url(#paint4_diamond_47_1163)"/>
<path d="M4.02031 17.1148C4.02031 15.7531 5.12491 14.6493 6.48751 14.6493H7.92404C9.28664 14.6493 10.3912 15.7531 10.3912 17.1148V18.5681C10.3912 19.9298 9.28663 21.0337 7.92404 21.0337H6.48751C5.12491 21.0337 4.02031 19.9298 4.02031 18.5681V17.1148Z" fill="url(#paint5_diamond_47_1163)"/>
<path d="M4.02031 21.0337H10.3912V27.4181H4.02031V21.0337Z" fill="url(#paint6_diamond_47_1163)"/>
<path d="M4.02031 23.4993C4.02031 22.1376 5.12491 21.0337 6.48751 21.0337H7.92404C9.28663 21.0337 10.3912 22.1376 10.3912 23.4993V24.9525C10.3912 26.3142 9.28663 27.4181 7.92404 27.4181H6.48751C5.12491 27.4181 4.02031 26.3142 4.02031 24.9526V23.4993Z" fill="url(#paint7_diamond_47_1163)"/>
<path d="M4.02031 27.4181H10.3912V33.8024H4.02031V27.4181Z" fill="url(#paint8_diamond_47_1163)"/>
<path d="M4.02031 29.8836C4.02031 28.5219 5.12491 27.4181 6.48751 27.4181H7.92404C9.28663 27.4181 10.3912 28.5219 10.3912 29.8836V31.3369C10.3912 32.6986 9.28663 33.8024 7.92404 33.8024H6.48751C5.12491 33.8024 4.02031 32.6986 4.02031 31.3369V29.8836Z" fill="url(#paint9_diamond_47_1163)"/>
<path d="M4.02031 33.8024H10.3912V40.187H4.02031V33.8024Z" fill="url(#paint10_diamond_47_1163)"/>
<path d="M4.02031 36.2681C4.02031 34.9064 5.12491 33.8024 6.48751 33.8024H7.92404C9.28663 33.8024 10.3912 34.9064 10.3912 36.2681V37.7214C10.3912 39.0831 9.28663 40.187 7.92404 40.187H6.48751C5.12491 40.187 4.02031 39.0831 4.02031 37.7214V36.2681Z" fill="url(#paint11_diamond_47_1163)"/>
<path d="M4.02031 40.187H10.3912V46.5714H4.02031V40.187Z" fill="url(#paint12_diamond_47_1163)"/>
<path d="M4.02031 42.6526C4.02031 41.2909 5.12491 40.187 6.48751 40.187H7.92404C9.28663 40.187 10.3912 41.2909 10.3912 42.6526V44.1058C10.3912 45.4675 9.28663 46.5714 7.92404 46.5714H6.48751C5.12491 46.5714 4.02031 45.4675 4.02031 44.1058V42.6526Z" fill="url(#paint13_diamond_47_1163)"/>
<path d="M4.02031 46.5714H10.3912V52.9557H4.02031V46.5714Z" fill="url(#paint14_diamond_47_1163)"/>
<path d="M4.02031 49.0368C4.02031 47.6751 5.12491 46.5714 6.48751 46.5714H7.92404C9.28663 46.5714 10.3912 47.6751 10.3912 49.0368V50.4901C10.3912 51.8518 9.28663 52.9557 7.92404 52.9557H6.48751C5.12491 52.9557 4.02031 51.8518 4.02031 50.4901V49.0368Z" fill="url(#paint15_diamond_47_1163)"/>
<path d="M47.9797 14.6493H42.2459V21.0337H47.9797V14.6493Z" fill="url(#paint16_diamond_47_1163)"/>
<path d="M47.9797 17.1148C47.9797 15.7531 46.8751 14.6493 45.5125 14.6493H44.7131C43.3505 14.6493 42.2459 15.7531 42.2459 17.1148V18.5681C42.2459 19.9298 43.3505 21.0337 44.7131 21.0337H45.5125C46.8751 21.0337 47.9797 19.9298 47.9797 18.5681V17.1148Z" fill="url(#paint17_diamond_47_1163)"/>
<path d="M47.9797 21.0337H42.2459V27.4181H47.9797V21.0337Z" fill="url(#paint18_diamond_47_1163)"/>
<path d="M47.9797 23.4993C47.9797 22.1376 46.8751 21.0337 45.5125 21.0337H44.7131C43.3505 21.0337 42.2459 22.1376 42.2459 23.4993V24.9526C42.2459 26.3143 43.3505 27.4181 44.7131 27.4181H45.5125C46.8751 27.4181 47.9797 26.3143 47.9797 24.9526V23.4993Z" fill="url(#paint19_diamond_47_1163)"/>
<path d="M47.9797 27.4181H42.2459V33.8025H47.9797V27.4181Z" fill="url(#paint20_diamond_47_1163)"/>
<path d="M47.9797 29.8836C47.9797 28.5219 46.8751 27.4181 45.5125 27.4181H44.7131C43.3505 27.4181 42.2459 28.5219 42.2459 29.8836V31.3369C42.2459 32.6986 43.3505 33.8025 44.7131 33.8025H45.5125C46.8751 33.8025 47.9797 32.6986 47.9797 31.3369V29.8836Z" fill="url(#paint21_diamond_47_1163)"/>
<path d="M47.9797 33.8025H42.2459V40.187H47.9797V33.8025Z" fill="url(#paint22_diamond_47_1163)"/>
<path d="M47.9797 36.2681C47.9797 34.9064 46.8751 33.8025 45.5125 33.8025H44.7131C43.3505 33.8025 42.2459 34.9064 42.2459 36.2681V37.7214C42.2459 39.0831 43.3505 40.187 44.7131 40.187H45.5125C46.8751 40.187 47.9797 39.0831 47.9797 37.7214V36.2681Z" fill="url(#paint23_diamond_47_1163)"/>
<path d="M47.9797 40.187H42.2459V46.5714H47.9797V40.187Z" fill="url(#paint24_diamond_47_1163)"/>
<path d="M47.9797 42.6526C47.9797 41.2909 46.8751 40.187 45.5125 40.187H44.7131C43.3505 40.187 42.2459 41.2909 42.2459 42.6526V44.1058C42.2459 45.4675 43.3505 46.5714 44.7131 46.5714H45.5125C46.8751 46.5714 47.9797 45.4675 47.9797 44.1058V42.6526Z" fill="url(#paint25_diamond_47_1163)"/>
<path d="M47.9797 46.5714H42.2459V52.9557H46.7461C47.4274 52.9557 47.9797 52.4037 47.9797 51.7229V46.5714Z" fill="url(#paint26_diamond_47_1163)"/>
<path d="M47.9797 49.0368C47.9797 47.6751 46.8751 46.5714 45.5125 46.5714H44.7131C43.3505 46.5714 42.2459 47.6751 42.2459 49.0368V50.4901C42.2459 51.8518 43.3505 52.9557 44.7131 52.9557H45.5125C46.8751 52.9557 47.9797 51.8518 47.9797 50.4901V49.0368Z" fill="url(#paint27_diamond_47_1163)"/>
<path d="M42.2458 33.5897V16.5646H10.3912V33.5897M42.2458 33.5897H10.3912M42.2458 33.5897V50.6148H10.3912V33.5897M10.3915 15.9482L42.2461 15.971M10.3915 51.1282L42.2462 51.1436M10.3912 21.0337V14.6493H4.02031V21.0337M10.3912 21.0337H4.02031M10.3912 21.0337V27.4181M4.02031 21.0337V27.4181M6.48751 21.0337H7.92404M6.48751 21.0337C5.12491 21.0337 4.02031 19.9298 4.02031 18.5681V17.1148C4.02031 15.7531 5.12491 14.6493 6.48751 14.6493H7.92404C9.28664 14.6493 10.3912 15.7531 10.3912 17.1148V18.5681C10.3912 19.9298 9.28663 21.0337 7.92404 21.0337M6.48751 21.0337C5.12491 21.0337 4.02031 22.1376 4.02031 23.4993V24.9526C4.02031 26.3142 5.12491 27.4181 6.48751 27.4181M7.92404 21.0337C9.28663 21.0337 10.3912 22.1376 10.3912 23.4993V24.9525C10.3912 26.3142 9.28663 27.4181 7.92404 27.4181M10.3912 27.4181H4.02031M10.3912 27.4181V33.8024M4.02031 27.4181V33.8024M6.48751 27.4181H7.92404M6.48751 27.4181C5.12491 27.4181 4.02031 28.5219 4.02031 29.8836V31.3369C4.02031 32.6986 5.12491 33.8024 6.48751 33.8024M7.92404 27.4181C9.28663 27.4181 10.3912 28.5219 10.3912 29.8836V31.3369C10.3912 32.6986 9.28663 33.8024 7.92404 33.8024M10.3912 33.8024H4.02031M10.3912 33.8024V40.187M4.02031 33.8024V40.187M6.48751 33.8024H7.92404M6.48751 33.8024C5.12491 33.8024 4.02031 34.9064 4.02031 36.2681V37.7214C4.02031 39.0831 5.12491 40.187 6.48751 40.187M7.92404 33.8024C9.28663 33.8024 10.3912 34.9064 10.3912 36.2681V37.7214C10.3912 39.0831 9.28663 40.187 7.92404 40.187M10.3912 40.187H4.02031M10.3912 40.187V46.5714M4.02031 40.187V46.5714M6.48751 40.187H7.92404M6.48751 40.187C5.12491 40.187 4.02031 41.2909 4.02031 42.6526V44.1058C4.02031 45.4675 5.12491 46.5714 6.48751 46.5714M7.92404 40.187C9.28663 40.187 10.3912 41.2909 10.3912 42.6526V44.1058C10.3912 45.4675 9.28663 46.5714 7.92404 46.5714M10.3912 46.5714H4.02031M10.3912 46.5714V52.9557H4.02031V46.5714M6.48751 46.5714H7.92404M6.48751 46.5714C5.12491 46.5714 4.02031 47.6751 4.02031 49.0368V50.4901C4.02031 51.8518 5.12491 52.9557 6.48751 52.9557H7.92404C9.28663 52.9557 10.3912 51.8518 10.3912 50.4901V49.0368C10.3912 47.6751 9.28663 46.5714 7.92404 46.5714M4 14.6492V52.9557M42.2459 21.0337V14.6493H47.9797V21.0337M42.2459 21.0337H47.9797M42.2459 21.0337V27.4181M47.9797 21.0337V27.4181M45.5125 21.0337H44.7131M45.5125 21.0337C46.8751 21.0337 47.9797 19.9298 47.9797 18.5681V17.1148C47.9797 15.7531 46.8751 14.6493 45.5125 14.6493H44.7131C43.3505 14.6493 42.2459 15.7531 42.2459 17.1148V18.5681C42.2459 19.9298 43.3505 21.0337 44.7131 21.0337M45.5125 21.0337C46.8751 21.0337 47.9797 22.1376 47.9797 23.4993V24.9526C47.9797 26.3143 46.8751 27.4181 45.5125 27.4181M44.7131 21.0337C43.3505 21.0337 42.2459 22.1376 42.2459 23.4993V24.9526C42.2459 26.3143 43.3505 27.4181 44.7131 27.4181M42.2459 27.4181H47.9797M42.2459 27.4181V33.8025M47.9797 27.4181V33.8025M45.5125 27.4181H44.7131M45.5125 27.4181C46.8751 27.4181 47.9797 28.5219 47.9797 29.8836V31.3369C47.9797 32.6986 46.8751 33.8025 45.5125 33.8025M44.7131 27.4181C43.3505 27.4181 42.2459 28.5219 42.2459 29.8836V31.3369C42.2459 32.6986 43.3505 33.8025 44.7131 33.8025M42.2459 33.8025H47.9797M42.2459 33.8025V40.187M47.9797 33.8025V40.187M45.5125 33.8025H44.7131M45.5125 33.8025C46.8751 33.8025 47.9797 34.9064 47.9797 36.2681V37.7214C47.9797 39.0831 46.8751 40.187 45.5125 40.187M44.7131 33.8025C43.3505 33.8025 42.2459 34.9064 42.2459 36.2681V37.7214C42.2459 39.0831 43.3505 40.187 44.7131 40.187M42.2459 40.187H47.9797M42.2459 40.187V46.5714M47.9797 40.187V46.5714M45.5125 40.187H44.7131M45.5125 40.187C46.8751 40.187 47.9797 41.2909 47.9797 42.6526V44.1058C47.9797 45.4675 46.8751 46.5714 45.5125 46.5714M44.7131 40.187C43.3505 40.187 42.2459 41.2909 42.2459 42.6526V44.1058C42.2459 45.4675 43.3505 46.5714 44.7131 46.5714M42.2459 46.5714H47.9797M42.2459 46.5714V52.9557H46.7461C47.4274 52.9557 47.9797 52.4037 47.9797 51.7229V46.5714M45.5125 46.5714H44.7131M45.5125 46.5714C46.8751 46.5714 47.9797 47.6751 47.9797 49.0368V50.4901C47.9797 51.8518 46.8751 52.9557 45.5125 52.9557H44.7131C43.3505 52.9557 42.2459 51.8518 42.2459 50.4901V49.0368C42.2459 47.6751 43.3505 46.5714 44.7131 46.5714M48 14.6493V52.9558M13.6843 28.5432C13.6843 29.0271 13.6948 29.4584 13.7158 29.8372C13.7158 30.0055 13.7158 30.1633 13.7158 30.3105C13.7369 30.4578 13.7474 30.5946 13.7474 30.7208C13.7474 30.8681 13.7579 31.0048 13.779 31.1311C13.779 31.6571 13.579 31.9201 13.179 31.9201C12.9684 31.9201 12.8105 31.8359 12.7053 31.6676C12.6 31.4993 12.5474 31.3415 12.5474 31.1942C12.5474 31.068 12.5474 30.8786 12.5474 30.6261C12.5684 30.3737 12.5895 30.0896 12.6105 29.774C12.6316 29.4584 12.6421 29.1428 12.6421 28.8273C12.6632 28.5117 12.6737 28.2381 12.6737 28.0067C12.6737 27.6701 12.6632 27.386 12.6421 27.1546C12.6421 26.9232 12.6421 26.7023 12.6421 26.4919C12.6421 26.2604 12.6316 26.029 12.6105 25.7976C12.6105 25.5661 12.6105 25.2821 12.6105 24.9455C12.6105 24.6509 12.6421 24.3984 12.7053 24.188C12.7684 23.9776 12.9369 23.8724 13.2106 23.8724C13.5053 23.8724 13.6948 24.0723 13.779 24.4721C13.8632 24.8508 13.9053 25.2716 13.9053 25.7344C13.9053 26.3867 14.0527 27.0284 14.3474 27.6596C14.6632 28.2907 15.1054 28.8483 15.6738 29.3322C16.2633 29.8161 16.9791 30.2159 17.8213 30.5315C18.6845 30.826 19.674 30.9733 20.7898 30.9733C21.5477 30.9733 22.2846 30.8786 23.0004 30.6893C23.7162 30.4999 24.3478 30.2369 24.8952 29.9003C25.4637 29.5426 25.9163 29.1113 26.2532 28.6063C26.6111 28.0804 26.79 27.4912 26.79 26.839C26.79 26.1868 26.5163 25.6082 25.9689 25.1033C25.4216 24.5983 24.7373 24.146 23.9162 23.7462C23.1162 23.3254 22.253 22.9362 21.3267 22.5785C20.4214 22.2208 19.5897 21.8632 18.8318 21.5055C18.1581 21.1899 17.4739 20.8322 16.7791 20.4325C16.0843 20.0327 15.4422 19.5278 14.8527 18.9176C14.2632 18.2865 13.779 17.529 13.4 16.6454C13.0421 15.7407 12.8632 14.6256 12.8632 13.3001C12.8632 12.1219 13.1053 11.0278 13.5895 10.0179C14.0948 9.00803 14.7369 8.13489 15.5159 7.3985C16.2949 6.64108 17.1686 6.05197 18.1371 5.63118C19.1055 5.21039 20.0635 5 21.0109 5C22.5478 5 23.8531 5.42079 24.9268 6.26237C26.0005 7.08291 26.8532 8.4084 27.4848 10.2388C27.4006 8.91335 27.3374 7.93501 27.2953 7.30383C27.2532 6.6516 27.2321 6.31497 27.2321 6.29393C27.2321 5.76794 27.4322 5.50495 27.8322 5.50495C28.0427 5.50495 28.2006 5.58911 28.3059 5.75742C28.4111 5.92574 28.4638 6.08353 28.4638 6.23081C28.4638 6.96719 28.4427 7.73514 28.4006 8.53464C28.3585 9.3131 28.3375 10.081 28.3375 10.8385C28.3375 11.5117 28.348 12.0903 28.369 12.5742C28.3901 13.0581 28.4006 13.6367 28.4006 14.31C28.4006 14.6045 28.369 14.857 28.3059 15.0674C28.2427 15.2778 28.0743 15.383 27.8006 15.383C27.5058 15.383 27.3164 15.1936 27.2321 14.8149C27.169 14.4152 27.1374 13.9839 27.1374 13.521C27.0532 12.3849 26.8532 11.3539 26.5374 10.4282C26.2216 9.48142 25.8005 8.68191 25.2742 8.02969C24.7689 7.35642 24.1583 6.84096 23.4425 6.48329C22.7478 6.12561 21.9793 5.94678 21.1372 5.94678C20.1477 5.94678 19.2213 6.16769 18.3581 6.60952C17.516 7.03031 16.7791 7.59838 16.1475 8.31372C15.537 9.02907 15.0527 9.84961 14.6948 10.7753C14.3369 11.68 14.158 12.6163 14.158 13.5841C14.158 14.6361 14.2948 15.5198 14.5685 16.2351C14.8632 16.9504 15.2422 17.5711 15.7054 18.0971C16.1896 18.602 16.737 19.0334 17.3476 19.391C17.9581 19.7277 18.5792 20.0433 19.2108 20.3378C19.8424 20.6324 20.6529 20.969 21.6425 21.3477C22.653 21.7264 23.632 22.1788 24.5794 22.7048C25.5479 23.2307 26.369 23.8304 27.0427 24.5036C27.7374 25.1769 28.0848 25.9554 28.0848 26.839C28.0848 27.7648 27.8427 28.5537 27.3585 29.206C26.8742 29.8372 26.2637 30.3631 25.5268 30.7839C24.811 31.1837 24.032 31.4677 23.1899 31.636C22.3477 31.8254 21.5793 31.9201 20.8845 31.9201C20.2108 31.9201 19.5161 31.8569 18.8002 31.7307C18.1055 31.6045 17.4318 31.4151 16.7791 31.1626C16.1265 30.8891 15.5264 30.542 14.979 30.1212C14.4527 29.6794 14.0211 29.1534 13.6843 28.5432ZM25.0334 58.6232C25.0334 59.1071 25.0439 59.5384 25.065 59.9171C25.065 60.0854 25.065 60.2432 25.065 60.3905C25.086 60.5378 25.0965 60.6745 25.0965 60.8007C25.0965 60.948 25.1071 61.0848 25.1281 61.211C25.1281 61.737 24.9281 62 24.5281 62C24.3176 62 24.1597 61.9158 24.0544 61.7475C23.9491 61.5792 23.8965 61.4214 23.8965 61.2741C23.8965 61.1479 23.8965 60.9585 23.8965 60.7061C23.9175 60.4536 23.9386 60.1696 23.9597 59.854C23.9807 59.5384 23.9912 59.2228 23.9912 58.9072C24.0123 58.5916 24.0228 58.3181 24.0228 58.0866C24.0228 57.75 24.0123 57.466 23.9912 57.2345C23.9912 57.0031 23.9912 56.7822 23.9912 56.5718C23.9912 56.3404 23.9807 56.1089 23.9597 55.8775C23.9597 55.6461 23.9597 55.362 23.9597 55.0254C23.9597 54.7308 23.9912 54.4784 24.0544 54.268C24.1176 54.0576 24.286 53.9524 24.5597 53.9524C24.8544 53.9524 25.0439 54.1523 25.1281 54.552C25.2123 54.9307 25.2544 55.3515 25.2544 55.8144C25.2544 56.4666 25.4018 57.1083 25.6966 57.7395C26.0124 58.3707 26.4545 58.9282 27.0229 59.4121C27.6124 59.896 28.3282 60.2958 29.1704 60.6114C30.0336 60.9059 31.0231 61.0532 32.1389 61.0532C32.8968 61.0532 33.6337 60.9585 34.3495 60.7692C35.0653 60.5798 35.697 60.3168 36.2443 59.9802C36.8128 59.6225 37.2654 59.1912 37.6023 58.6863C37.9602 58.1603 38.1392 57.5712 38.1392 56.919C38.1392 56.2667 37.8655 55.6881 37.3181 55.1832C36.7707 54.6782 36.0864 54.2259 35.2654 53.8261C34.4653 53.4054 33.6021 53.0161 32.6758 52.6585C31.7705 52.3008 30.9389 51.9431 30.1809 51.5854C29.5072 51.2698 28.823 50.9122 28.1282 50.5124C27.4335 50.1127 26.7913 49.6077 26.2018 48.9976C25.6123 48.3664 25.1281 47.609 24.7492 46.7253C24.3912 45.8206 24.2123 44.7055 24.2123 43.38C24.2123 42.2018 24.4544 41.1078 24.9386 40.0979C25.4439 39.088 26.0861 38.2148 26.865 37.4784C27.644 36.721 28.5177 36.1319 29.4862 35.7111C30.4546 35.2903 31.4126 35.0799 32.36 35.0799C33.8969 35.0799 35.2022 35.5007 36.2759 36.3423C37.3496 37.1628 38.2023 38.4883 38.8339 40.3188C38.7497 38.9933 38.6865 38.0149 38.6444 37.3838C38.6023 36.7315 38.5813 36.3949 38.5813 36.3739C38.5813 35.8479 38.7813 35.5849 39.1813 35.5849C39.3918 35.5849 39.5497 35.669 39.655 35.8374C39.7603 36.0057 39.8129 36.1635 39.8129 36.3107C39.8129 37.0471 39.7918 37.8151 39.7497 38.6146C39.7076 39.393 39.6866 40.161 39.6866 40.9184C39.6866 41.5917 39.6971 42.1703 39.7182 42.6542C39.7392 43.1381 39.7497 43.7167 39.7497 44.3899C39.7497 44.6845 39.7182 44.9369 39.655 45.1473C39.5918 45.3577 39.4234 45.4629 39.1497 45.4629C38.855 45.4629 38.6655 45.2736 38.5813 44.8949C38.5181 44.4951 38.4865 44.0638 38.4865 43.6009C38.4023 42.4648 38.2023 41.4339 37.8865 40.5081C37.5707 39.5614 37.1496 38.7619 36.6233 38.1096C36.118 37.4364 35.5075 36.9209 34.7917 36.5632C34.0969 36.2055 33.3284 36.0267 32.4863 36.0267C31.4968 36.0267 30.5704 36.2476 29.7072 36.6895C28.8651 37.1102 28.1282 37.6783 27.4966 38.3937C26.8861 39.109 26.4019 39.9295 26.0439 40.8553C25.686 41.76 25.5071 42.6962 25.5071 43.6641C25.5071 44.716 25.6439 45.5997 25.9176 46.315C26.2124 47.0304 26.5913 47.651 27.0545 48.177C27.5387 48.682 28.0861 49.1133 28.6967 49.471C29.3072 49.8076 29.9283 50.1232 30.5599 50.4177C31.1915 50.7123 32.0021 51.0489 32.9916 51.4276C34.0021 51.8064 34.9811 52.2587 35.9285 52.7847C36.897 53.3107 37.7181 53.9103 38.3918 54.5836C39.0866 55.2568 39.4339 56.0353 39.4339 56.919C39.4339 57.8447 39.1918 58.6337 38.7076 59.2859C38.2234 59.9171 37.6128 60.4431 36.8759 60.8639C36.1601 61.2636 35.3811 61.5476 34.539 61.716C33.6969 61.9053 32.9284 62 32.2337 62C31.5599 62 30.8652 61.9369 30.1494 61.8106C29.4546 61.6844 28.7809 61.495 28.1282 61.2426C27.4756 60.9691 26.8756 60.6219 26.3282 60.2011C25.8018 59.7593 25.3702 59.2333 25.0334 58.6232Z" stroke="#FFE8F8" stroke-width="2"/>
<defs>
<radialGradient id="paint0_diamond_47_1163" cx="0" cy="0" r="1" gradientUnits="userSpaceOnUse" gradientTransform="translate(26 33.5) rotate(90) scale(28.5 22)">
<stop stop-color="#FFE8F8" stop-opacity="0.9"/>
<stop offset="1" stop-color="#CE66AE"/>
</radialGradient>
<radialGradient id="paint1_diamond_47_1163" cx="0" cy="0" r="1" gradientUnits="userSpaceOnUse" gradientTransform="translate(26 33.5) rotate(90) scale(28.5 22)">
<stop stop-color="#FFE8F8" stop-opacity="0.9"/>
<stop offset="1" stop-color="#CE66AE"/>
</radialGradient>
<radialGradient id="paint2_diamond_47_1163" cx="0" cy="0" r="1" gradientUnits="userSpaceOnUse" gradientTransform="translate(26 33.5) rotate(90) scale(28.5 22)">
<stop stop-color="#FFE8F8" stop-opacity="0.9"/>
<stop offset="1" stop-color="#CE66AE"/>
</radialGradient>
<radialGradient id="paint3_diamond_47_1163" cx="0" cy="0" r="1" gradientUnits="userSpaceOnUse" gradientTransform="translate(26 33.5) rotate(90) scale(28.5 22)">
<stop stop-color="#FFE8F8" stop-opacity="0.9"/>
<stop offset="1" stop-color="#CE66AE"/>
</radialGradient>
<radialGradient id="paint4_diamond_47_1163" cx="0" cy="0" r="1" gradientUnits="userSpaceOnUse" gradientTransform="translate(26 33.5) rotate(90) scale(28.5 22)">
<stop stop-color="#FFE8F8" stop-opacity="0.9"/>
<stop offset="1" stop-color="#CE66AE"/>
</radialGradient>
<radialGradient id="paint5_diamond_47_1163" cx="0" cy="0" r="1" gradientUnits="userSpaceOnUse" gradientTransform="translate(26 33.5) rotate(90) scale(28.5 22)">
<stop stop-color="#FFE8F8" stop-opacity="0.9"/>
<stop offset="1" stop-color="#CE66AE"/>
</radialGradient>
<radialGradient id="paint6_diamond_47_1163" cx="0" cy="0" r="1" gradientUnits="userSpaceOnUse" gradientTransform="translate(26 33.5) rotate(90) scale(28.5 22)">
<stop stop-color="#FFE8F8" stop-opacity="0.9"/>
<stop offset="1" stop-color="#CE66AE"/>
</radialGradient>
<radialGradient id="paint7_diamond_47_1163" cx="0" cy="0" r="1" gradientUnits="userSpaceOnUse" gradientTransform="translate(26 33.5) rotate(90) scale(28.5 22)">
<stop stop-color="#FFE8F8" stop-opacity="0.9"/>
<stop offset="1" stop-color="#CE66AE"/>
</radialGradient>
<radialGradient id="paint8_diamond_47_1163" cx="0" cy="0" r="1" gradientUnits="userSpaceOnUse" gradientTransform="translate(26 33.5) rotate(90) scale(28.5 22)">
<stop stop-color="#FFE8F8" stop-opacity="0.9"/>
<stop offset="1" stop-color="#CE66AE"/>
</radialGradient>
<radialGradient id="paint9_diamond_47_1163" cx="0" cy="0" r="1" gradientUnits="userSpaceOnUse" gradientTransform="translate(26 33.5) rotate(90) scale(28.5 22)">
<stop stop-color="#FFE8F8" stop-opacity="0.9"/>
<stop offset="1" stop-color="#CE66AE"/>
</radialGradient>
<radialGradient id="paint10_diamond_47_1163" cx="0" cy="0" r="1" gradientUnits="userSpaceOnUse" gradientTransform="translate(26 33.5) rotate(90) scale(28.5 22)">
<stop stop-color="#FFE8F8" stop-opacity="0.9"/>
<stop offset="1" stop-color="#CE66AE"/>
</radialGradient>
<radialGradient id="paint11_diamond_47_1163" cx="0" cy="0" r="1" gradientUnits="userSpaceOnUse" gradientTransform="translate(26 33.5) rotate(90) scale(28.5 22)">
<stop stop-color="#FFE8F8" stop-opacity="0.9"/>
<stop offset="1" stop-color="#CE66AE"/>
</radialGradient>
<radialGradient id="paint12_diamond_47_1163" cx="0" cy="0" r="1" gradientUnits="userSpaceOnUse" gradientTransform="translate(26 33.5) rotate(90) scale(28.5 22)">
<stop stop-color="#FFE8F8" stop-opacity="0.9"/>
<stop offset="1" stop-color="#CE66AE"/>
</radialGradient>
<radialGradient id="paint13_diamond_47_1163" cx="0" cy="0" r="1" gradientUnits="userSpaceOnUse" gradientTransform="translate(26 33.5) rotate(90) scale(28.5 22)">
<stop stop-color="#FFE8F8" stop-opacity="0.9"/>
<stop offset="1" stop-color="#CE66AE"/>
</radialGradient>
<radialGradient id="paint14_diamond_47_1163" cx="0" cy="0" r="1" gradientUnits="userSpaceOnUse" gradientTransform="translate(26 33.5) rotate(90) scale(28.5 22)">
<stop stop-color="#FFE8F8" stop-opacity="0.9"/>
<stop offset="1" stop-color="#CE66AE"/>
</radialGradient>
<radialGradient id="paint15_diamond_47_1163" cx="0" cy="0" r="1" gradientUnits="userSpaceOnUse" gradientTransform="translate(26 33.5) rotate(90) scale(28.5 22)">
<stop stop-color="#FFE8F8" stop-opacity="0.9"/>
<stop offset="1" stop-color="#CE66AE"/>
</radialGradient>
<radialGradient id="paint16_diamond_47_1163" cx="0" cy="0" r="1" gradientUnits="userSpaceOnUse" gradientTransform="translate(26 33.5) rotate(90) scale(28.5 22)">
<stop stop-color="#FFE8F8" stop-opacity="0.9"/>
<stop offset="1" stop-color="#CE66AE"/>
</radialGradient>
<radialGradient id="paint17_diamond_47_1163" cx="0" cy="0" r="1" gradientUnits="userSpaceOnUse" gradientTransform="translate(26 33.5) rotate(90) scale(28.5 22)">
<stop stop-color="#FFE8F8" stop-opacity="0.9"/>
<stop offset="1" stop-color="#CE66AE"/>
</radialGradient>
<radialGradient id="paint18_diamond_47_1163" cx="0" cy="0" r="1" gradientUnits="userSpaceOnUse" gradientTransform="translate(26 33.5) rotate(90) scale(28.5 22)">
<stop stop-color="#FFE8F8" stop-opacity="0.9"/>
<stop offset="1" stop-color="#CE66AE"/>
</radialGradient>
<radialGradient id="paint19_diamond_47_1163" cx="0" cy="0" r="1" gradientUnits="userSpaceOnUse" gradientTransform="translate(26 33.5) rotate(90) scale(28.5 22)">
<stop stop-color="#FFE8F8" stop-opacity="0.9"/>
<stop offset="1" stop-color="#CE66AE"/>
</radialGradient>
<radialGradient id="paint20_diamond_47_1163" cx="0" cy="0" r="1" gradientUnits="userSpaceOnUse" gradientTransform="translate(26 33.5) rotate(90) scale(28.5 22)">
<stop stop-color="#FFE8F8" stop-opacity="0.9"/>
<stop offset="1" stop-color="#CE66AE"/>
</radialGradient>
<radialGradient id="paint21_diamond_47_1163" cx="0" cy="0" r="1" gradientUnits="userSpaceOnUse" gradientTransform="translate(26 33.5) rotate(90) scale(28.5 22)">
<stop stop-color="#FFE8F8" stop-opacity="0.9"/>
<stop offset="1" stop-color="#CE66AE"/>
</radialGradient>
<radialGradient id="paint22_diamond_47_1163" cx="0" cy="0" r="1" gradientUnits="userSpaceOnUse" gradientTransform="translate(26 33.5) rotate(90) scale(28.5 22)">
<stop stop-color="#FFE8F8" stop-opacity="0.9"/>
<stop offset="1" stop-color="#CE66AE"/>
</radialGradient>
<radialGradient id="paint23_diamond_47_1163" cx="0" cy="0" r="1" gradientUnits="userSpaceOnUse" gradientTransform="translate(26 33.5) rotate(90) scale(28.5 22)">
<stop stop-color="#FFE8F8" stop-opacity="0.9"/>
<stop offset="1" stop-color="#CE66AE"/>
</radialGradient>
<radialGradient id="paint24_diamond_47_1163" cx="0" cy="0" r="1" gradientUnits="userSpaceOnUse" gradientTransform="translate(26 33.5) rotate(90) scale(28.5 22)">
<stop stop-color="#FFE8F8" stop-opacity="0.9"/>
<stop offset="1" stop-color="#CE66AE"/>
</radialGradient>
<radialGradient id="paint25_diamond_47_1163" cx="0" cy="0" r="1" gradientUnits="userSpaceOnUse" gradientTransform="translate(26 33.5) rotate(90) scale(28.5 22)">
<stop stop-color="#FFE8F8" stop-opacity="0.9"/>
<stop offset="1" stop-color="#CE66AE"/>
</radialGradient>
<radialGradient id="paint26_diamond_47_1163" cx="0" cy="0" r="1" gradientUnits="userSpaceOnUse" gradientTransform="translate(26 33.5) rotate(90) scale(28.5 22)">
<stop stop-color="#FFE8F8" stop-opacity="0.9"/>
<stop offset="1" stop-color="#CE66AE"/>
</radialGradient>
<radialGradient id="paint27_diamond_47_1163" cx="0" cy="0" r="1" gradientUnits="userSpaceOnUse" gradientTransform="translate(26 33.5) rotate(90) scale(28.5 22)">
<stop stop-color="#FFE8F8" stop-opacity="0.9"/>
<stop offset="1" stop-color="#CE66AE"/>
</radialGradient>
</defs>
</svg>
