<svg width="270" height="108" viewBox="0 0 270 108" fill="none" xmlns="http://www.w3.org/2000/svg">
<path d="M3.30318 48.7026C3.30318 49.6832 3.32453 50.557 3.36716 51.3243C3.36716 51.6655 3.36716 51.9852 3.36716 52.2835C3.4098 52.5817 3.43114 52.859 3.43114 53.1148C3.43114 53.413 3.45248 53.6903 3.49512 53.946C3.49512 55.0116 3.08991 55.5447 2.27955 55.5447C1.85303 55.5447 1.53315 55.3743 1.31989 55.0331C1.10663 54.6919 1 54.3722 1 54.0739C1 53.8182 1 53.4345 1 52.9229C1.04265 52.4114 1.0853 51.8359 1.12795 51.1964C1.1706 50.557 1.19193 49.9175 1.19193 49.2781C1.23458 48.6387 1.25591 48.0846 1.25591 47.6155C1.25591 46.9336 1.23458 46.3581 1.19193 45.889C1.19193 45.4199 1.19193 44.9723 1.19193 44.5462C1.19193 44.0771 1.1706 43.6085 1.12795 43.1394C1.12795 42.6703 1.12795 42.095 1.12795 41.4129C1.12795 40.8161 1.19193 40.3045 1.31989 39.8783C1.44784 39.452 1.78906 39.2388 2.34352 39.2388C2.94066 39.2388 3.32453 39.6438 3.49512 40.4538C3.6657 41.2211 3.75102 42.0737 3.75102 43.0115C3.75102 44.3329 4.04957 45.6333 4.64671 46.9122C5.28648 48.191 6.18216 49.3206 7.33376 50.3012C8.52798 51.2819 9.97817 52.0917 11.6842 52.7311C13.4329 53.3281 15.4375 53.6263 17.6981 53.6263C19.2335 53.6263 20.7264 53.4345 22.1765 53.0508C23.6266 52.6672 24.9062 52.1341 26.0151 51.4522C27.1667 50.7273 28.0837 49.8536 28.7662 48.8305C29.4912 47.7649 29.8538 46.5709 29.8538 45.2496C29.8538 43.9282 29.2993 42.7558 28.1904 41.7326C27.0814 40.7095 25.6952 39.793 24.0318 38.983C22.4111 38.1304 20.6624 37.3418 18.7857 36.6171C16.9517 35.8924 15.2669 35.1677 13.7315 34.443C12.3666 33.8035 10.9805 33.0788 9.57296 32.2689C8.16546 31.4589 6.86457 30.4358 5.67034 29.1995C4.47612 27.9206 3.49512 26.386 2.72739 24.5955C2.00231 22.7625 1.63977 20.5031 1.63977 17.8174C1.63977 15.4301 2.13026 13.2134 3.11125 11.1672C4.13489 9.12095 5.43578 7.35184 7.01387 5.85978C8.59196 4.32511 10.362 3.1315 12.324 2.27889C14.2859 1.42628 16.2266 1 18.1459 1C21.2595 1 23.9039 1.85261 26.0791 3.55778C28.2543 5.22034 29.9817 7.90601 31.2613 11.6148C31.0907 8.92912 30.9627 6.94684 30.8774 5.66795C30.7921 4.34645 30.7495 3.66434 30.7495 3.62172C30.7495 2.556 31.1547 2.02311 31.965 2.02311C32.3915 2.02311 32.7114 2.19361 32.9247 2.53467C33.138 2.87572 33.2446 3.19544 33.2446 3.49384C33.2446 4.98589 33.2019 6.54184 33.1166 8.16178C33.0313 9.73907 32.9887 11.2951 32.9887 12.8297C32.9887 14.1939 33.01 15.3662 33.0526 16.3467C33.0953 17.3272 33.1166 18.4995 33.1166 19.8636C33.1166 20.4605 33.0526 20.972 32.9247 21.3983C32.7967 21.8246 32.4555 22.0377 31.901 22.0377C31.3039 22.0377 30.92 21.6541 30.7495 20.8867C30.6215 20.0768 30.5575 19.2029 30.5575 18.265C30.3869 15.963 29.9817 13.8742 29.342 11.9985C28.7022 10.0801 27.8491 8.46018 26.7829 7.13867C25.7592 5.77451 24.5223 4.73011 23.0722 4.00539C21.6647 3.28067 20.1079 2.91834 18.4018 2.91834C16.3972 2.91834 14.5206 3.36595 12.7718 4.26117C11.0658 5.11378 9.57296 6.26478 8.29341 7.71417C7.0565 9.16356 6.07555 10.8261 5.35046 12.7018C4.62536 14.5349 4.26284 16.432 4.26284 18.3929C4.26284 20.5244 4.5401 22.3148 5.09455 23.7642C5.69169 25.2136 6.45941 26.4712 7.39773 27.537C8.37873 28.5601 9.48764 29.434 10.7246 30.1587C11.9615 30.8408 13.2197 31.4802 14.4992 32.077C15.7788 32.6739 17.4208 33.3559 19.4255 34.1233C21.4727 34.8906 23.456 35.8071 25.3754 36.8729C27.3373 37.9386 29.0007 39.1535 30.3656 40.5177C31.7731 41.8819 32.4768 43.4591 32.4768 45.2496C32.4768 47.1255 31.9864 48.7241 31.0054 50.0454C30.0244 51.3243 28.7875 52.3899 27.2947 53.2427C25.8445 54.0525 24.2664 54.628 22.5604 54.9692C20.8543 55.3528 19.2975 55.5447 17.89 55.5447C16.5251 55.5447 15.1176 55.4168 13.6675 55.161C12.26 54.9052 10.8951 54.5215 9.57296 54.01C8.25078 53.456 7.03521 52.7526 5.92625 51.8998C4.85998 51.0046 3.98559 49.939 3.30318 48.7026ZM60.1735 27.1533C60.131 26.6844 60.0881 26.1302 60.0456 25.4907C60.0456 24.8513 60.0456 24.2332 60.0456 23.6364C60.0456 23.1674 60.131 22.7625 60.3015 22.4214C60.5149 22.0377 60.7918 21.8459 61.1332 21.8459C61.4746 21.8459 61.7305 22.0164 61.9009 22.3575C62.1143 22.6985 62.2208 23.1035 62.2208 23.5724C62.2208 24.1692 62.1993 24.9579 62.1568 25.9384C62.1568 26.8762 62.1568 27.8567 62.1568 28.8798C62.1568 29.9029 62.1568 30.8834 62.1568 31.8212C62.1568 32.7591 62.1568 33.5051 62.1568 34.0593C62.1568 34.4004 62.0714 34.7201 61.9009 35.0185C61.7305 35.3169 61.4746 35.4661 61.1332 35.4661C60.7918 35.4661 60.5149 35.3808 60.3015 35.2103C60.131 34.9971 60.0456 34.6348 60.0456 34.1233C60.0456 31.5229 59.4698 29.4553 58.3182 27.9206C57.1666 26.386 55.1618 25.6186 52.3043 25.6186C50.5984 25.6186 49.02 25.981 47.57 26.7057C46.1625 27.3877 44.9256 28.3682 43.8593 29.6471C42.8357 30.926 42.0253 32.4607 41.4282 34.2511C40.8737 35.999 40.5965 37.9173 40.5965 40.0061C40.5965 43.9707 41.5561 47.104 43.4754 49.406C45.4374 51.708 48.1673 52.859 51.6645 52.859C53.7543 52.859 55.5886 52.326 57.1666 51.2604C58.7445 50.1948 60.195 48.5532 61.5171 46.3367C61.9434 45.6972 62.3912 45.3775 62.8606 45.3775C63.074 45.3775 63.2659 45.4839 63.4364 45.6972C63.6068 45.8676 63.6923 46.0809 63.6923 46.3367C63.6923 46.7628 63.4789 47.3383 63.0525 48.0632C60.3655 52.6247 56.4413 54.9052 51.2807 54.9052C49.2334 54.9052 47.3781 54.5215 45.7147 53.7542C44.0512 52.9869 42.6011 51.9423 41.3642 50.6209C40.17 49.2566 39.2316 47.6795 38.5492 45.889C37.9094 44.0986 37.5895 42.1803 37.5895 40.134C37.5895 37.832 37.9521 35.6793 38.6771 33.6756C39.4449 31.672 40.4899 29.9455 41.812 28.4961C43.1342 27.0041 44.7124 25.8318 46.5464 24.9792C48.3802 24.1266 50.3635 23.7003 52.4962 23.7003C54.1172 23.7003 55.5672 23.9347 56.8467 24.4037C58.1263 24.83 59.2354 25.7465 60.1735 27.1533ZM89.1453 32.2049C89.1453 32.7165 89.1028 33.2494 89.0173 33.8035C88.9318 34.3151 88.7614 34.8053 88.5055 35.2743C88.2921 35.7432 87.9722 36.1269 87.5458 36.4253C87.162 36.7236 86.6501 36.8729 86.0104 36.8729C85.2851 36.8729 84.7308 36.681 84.347 36.2974C84.0056 35.9137 83.8351 35.4235 83.8351 34.8266C83.8351 34.2725 83.9631 33.8461 84.219 33.5478C84.5174 33.2494 84.8163 32.9936 85.1147 32.7804C85.4561 32.5673 85.7545 32.3328 86.0104 32.077C86.3088 31.8212 86.4582 31.4376 86.4582 30.926C86.4582 30.2013 86.1808 29.6685 85.6265 29.3274C85.0722 28.9437 84.3685 28.7519 83.5153 28.7519C82.7475 28.7519 81.9158 28.9224 81.0201 29.2635C80.1245 29.6045 79.2927 30.18 78.525 30.99C77.7573 31.7999 77.1175 32.8657 76.6057 34.1872C76.0939 35.4661 75.838 37.0647 75.838 38.983V52.5393H78.653C80.8707 52.5393 82.4276 52.6457 83.3233 52.859C84.219 53.0723 84.6668 53.3491 84.6668 53.6903C84.6668 53.946 84.5174 54.1594 84.219 54.3297C83.9631 54.4576 83.6857 54.5215 83.3873 54.5215C82.79 54.5215 82.0863 54.5215 81.276 54.5215C80.5083 54.4791 79.7191 54.4576 78.9089 54.4576C78.0987 54.4151 77.3095 54.3937 76.5417 54.3937C75.774 54.3512 75.1127 54.3297 74.5584 54.3297C73.4493 54.3297 72.4472 54.3722 71.5515 54.4576C70.6558 54.5001 69.6747 54.5215 68.6085 54.5215C68.2672 54.5215 67.9473 54.4361 67.6489 54.2658C67.3505 54.0954 67.201 53.9036 67.201 53.6903C67.201 53.4345 67.5424 53.2002 68.2247 52.9869C68.9069 52.7736 69.8026 52.6247 70.9117 52.5393C71.6794 52.4968 72.1488 52.3899 72.3192 52.2195C72.4897 52.0492 72.6391 51.6016 72.7671 50.8767C72.895 50.1948 72.9805 49.3206 73.023 48.255C73.1084 47.1894 73.1724 45.8036 73.2149 44.0986C73.3004 42.3508 73.3429 40.2193 73.3429 37.7041C73.3853 35.189 73.4068 32.141 73.4068 28.5601C73.4068 27.9632 73.087 27.6649 72.4472 27.6649H66.1134C65.6871 27.6649 65.3672 27.5583 65.1538 27.3451C64.9403 27.132 64.8339 26.9615 64.8339 26.8336C64.8339 26.6631 65.1323 26.5139 65.7296 26.386C66.3268 26.2155 67.0516 26.0876 67.9048 26.0023C68.758 25.8744 69.6747 25.7891 70.6558 25.7465C71.6795 25.7039 72.5751 25.6826 73.3429 25.6826C74.452 25.6826 75.1982 25.8105 75.5821 26.0662C75.9659 26.322 76.1579 27.0041 76.1579 28.1125V31.2457C77.1815 29.7537 78.3546 28.6454 79.6766 27.9206C80.9986 27.1533 82.4062 26.7696 83.8991 26.7696C85.4771 26.7696 86.7356 27.1959 87.6738 28.0485C88.6549 28.9011 89.1453 30.2866 89.1453 32.2049ZM114.002 35.7858C114.728 35.7858 115.09 35.4021 115.09 34.6348C115.09 33.7822 114.92 32.8657 114.578 31.8852C114.237 30.8621 113.704 29.9242 112.979 29.0716C112.254 28.219 111.315 27.5156 110.164 26.9615C109.055 26.3646 107.711 26.0662 106.133 26.0662C104.512 26.0662 103.105 26.3646 101.911 26.9615C100.759 27.5583 99.757 28.3469 98.9038 29.3274C98.0936 30.2653 97.4323 31.331 96.9205 32.5246C96.4512 33.6756 96.1103 34.848 95.8969 36.0416L114.002 35.7858ZM95.641 37.9599C95.5985 38.4289 95.5555 38.8978 95.513 39.3667C95.513 39.793 95.513 40.198 95.513 40.5816C95.513 42.1163 95.6834 43.6295 96.0248 45.1217C96.4087 46.6139 97.006 47.9567 97.8162 49.1502C98.6694 50.3437 99.757 51.3243 101.079 52.0917C102.444 52.8165 104.086 53.1787 106.005 53.1787C107.754 53.1787 109.29 52.8805 110.612 52.2835C111.934 51.6865 113.021 50.8982 113.874 49.9175C114.77 48.9369 115.431 47.8074 115.858 46.5285C116.327 45.2496 116.562 43.9282 116.562 42.5639C116.562 41.7966 116.924 41.4129 117.649 41.4129C118.374 41.4129 118.737 41.7966 118.737 42.5639C118.737 44.2265 118.417 45.8251 117.777 47.3598C117.137 48.8944 116.242 50.2587 115.09 51.4522C113.981 52.6032 112.659 53.5199 111.123 54.2018C109.588 54.8837 107.925 55.2249 106.133 55.2249C103.873 55.2249 101.889 54.8413 100.183 54.0739C98.5199 53.3066 97.1339 52.241 96.0248 50.8767C94.9157 49.5124 94.063 47.9138 93.4657 46.0809C92.9114 44.205 92.634 42.2016 92.634 40.0701C92.634 37.7255 92.9754 35.5726 93.6577 33.6117C94.3829 31.6081 95.3635 29.9029 96.6006 28.4961C97.8377 27.0894 99.2877 26.0023 100.951 25.235C102.614 24.425 104.406 24.02 106.325 24.02C108.372 24.02 110.121 24.4463 111.571 25.2989C113.021 26.1089 114.194 27.1107 115.09 28.3043C116.028 29.4553 116.711 30.6702 117.137 31.9491C117.607 33.1854 117.841 34.2298 117.841 35.0824C117.841 35.7645 117.649 36.3826 117.265 36.9368C116.924 37.491 116.37 37.7894 115.602 37.832C114.493 37.8746 113.128 37.896 111.507 37.896C109.929 37.896 108.287 37.896 106.581 37.896C106.069 37.896 105.323 37.896 104.342 37.896C103.361 37.896 102.316 37.9173 101.207 37.9599C100.141 37.9599 99.0957 37.9599 98.0721 37.9599C97.0485 37.9599 96.2382 37.9599 95.641 37.9599ZM143.929 35.7858C144.655 35.7858 145.017 35.4021 145.017 34.6348C145.017 33.7822 144.847 32.8657 144.505 31.8852C144.164 30.8621 143.631 29.9242 142.906 29.0716C142.18 28.219 141.242 27.5156 140.091 26.9615C138.982 26.3646 137.638 26.0662 136.06 26.0662C134.439 26.0662 133.032 26.3646 131.838 26.9615C130.686 27.5583 129.684 28.3469 128.831 29.3274C128.02 30.2653 127.359 31.331 126.847 32.5246C126.378 33.6756 126.037 34.848 125.824 36.0416L143.929 35.7858ZM125.568 37.9599C125.525 38.4289 125.482 38.8978 125.44 39.3667C125.44 39.793 125.44 40.198 125.44 40.5816C125.44 42.1163 125.61 43.6295 125.952 45.1217C126.336 46.6139 126.933 47.9567 127.743 49.1502C128.596 50.3437 129.684 51.3243 131.006 52.0917C132.371 52.8165 134.013 53.1787 135.932 53.1787C137.681 53.1787 139.217 52.8805 140.539 52.2835C141.861 51.6865 142.948 50.8982 143.801 49.9175C144.697 48.9369 145.358 47.8074 145.785 46.5285C146.254 45.2496 146.488 43.9282 146.488 42.5639C146.488 41.7966 146.851 41.4129 147.576 41.4129C148.301 41.4129 148.664 41.7966 148.664 42.5639C148.664 44.2265 148.344 45.8251 147.704 47.3598C147.064 48.8944 146.169 50.2587 145.017 51.4522C143.908 52.6032 142.586 53.5199 141.05 54.2018C139.515 54.8837 137.851 55.2249 136.06 55.2249C133.799 55.2249 131.816 54.8413 130.11 54.0739C128.447 53.3066 127.061 52.241 125.952 50.8767C124.843 49.5124 123.99 47.9138 123.393 46.0809C122.838 44.205 122.561 42.2016 122.561 40.0701C122.561 37.7255 122.902 35.5726 123.585 33.6117C124.31 31.6081 125.29 29.9029 126.528 28.4961C127.765 27.0894 129.215 26.0023 130.878 25.235C132.541 24.425 134.333 24.02 136.252 24.02C138.299 24.02 140.048 24.4463 141.498 25.2989C142.948 26.1089 144.121 27.1107 145.017 28.3043C145.955 29.4553 146.638 30.6702 147.064 31.9491C147.534 33.1854 147.768 34.2298 147.768 35.0824C147.768 35.7645 147.576 36.3826 147.192 36.9368C146.851 37.491 146.296 37.7894 145.529 37.832C144.42 37.8746 143.055 37.896 141.434 37.896C139.856 37.896 138.214 37.896 136.508 37.896C135.996 37.896 135.25 37.896 134.269 37.896C133.288 37.896 132.243 37.9173 131.134 37.9599C130.068 37.9599 129.023 37.9599 127.999 37.9599C126.975 37.9599 126.165 37.9599 125.568 37.9599ZM181.533 54.5855H184.988C185.628 54.5855 186.268 54.6494 186.908 54.7773C187.59 54.9052 187.931 55.2035 187.931 55.6726C187.931 55.9283 187.825 56.0987 187.611 56.1841C187.398 56.312 187.142 56.3759 186.844 56.3759C186.716 56.3759 186.332 56.3759 185.692 56.3759C185.052 56.3759 184.285 56.3759 183.389 56.3759C182.493 56.4184 181.533 56.4399 180.51 56.4399C179.486 56.4399 178.527 56.4399 177.631 56.4399C176.735 56.4823 175.967 56.5038 175.328 56.5038C174.688 56.5038 174.304 56.5038 174.176 56.5038C173.152 56.5038 172.641 56.248 172.641 55.7365C172.641 55.1825 173.131 54.8628 174.112 54.7773C175.008 54.6919 175.733 54.607 176.287 54.5215C176.885 54.4361 177.353 54.3297 177.695 54.2018C178.036 54.0315 178.292 53.8396 178.463 53.6263C178.633 53.3705 178.718 53.0293 178.718 52.6032C178.804 50.6849 178.868 48.788 178.91 46.9122C178.953 44.9938 178.974 43.3527 178.974 41.9884C178.974 40.3259 178.91 38.642 178.782 36.9368C178.697 35.189 178.42 33.6117 177.951 32.2049C177.481 30.7555 176.757 29.5832 175.776 28.688C174.837 27.7927 173.515 27.3451 171.809 27.3451C170.06 27.3451 168.354 27.8567 166.691 28.8798C165.07 29.9029 163.769 31.4376 162.788 33.4838C162.063 35.0611 161.637 36.5958 161.509 38.0878C161.381 39.5372 161.317 41.0506 161.317 42.6279V51.708H165.603C166.2 51.708 166.712 51.7719 167.139 51.8998C167.565 52.0277 167.778 52.2835 167.778 52.6672C167.778 53.2641 167.053 53.5624 165.603 53.5624C165.475 53.5624 165.134 53.5624 164.58 53.5624C164.025 53.5624 163.342 53.5624 162.532 53.5624C161.765 53.5624 160.911 53.5839 159.973 53.6263C159.077 53.6263 158.224 53.6263 157.414 53.6263C156.604 53.6263 155.9 53.6263 155.303 53.6263C154.706 53.6263 154.343 53.6263 154.215 53.6263C153.49 53.6263 152.978 53.5839 152.68 53.4984C152.381 53.3705 152.232 53.2002 152.232 52.9869C152.232 52.6886 152.381 52.4538 152.68 52.2835C153.021 52.0702 153.447 51.9423 153.959 51.8998L156.838 51.708C157.478 51.6655 157.926 51.4522 158.182 51.0685C158.438 50.6849 158.587 49.8111 158.63 48.4468C158.672 46.4431 158.715 44.6526 158.758 43.0755C158.8 41.4555 158.822 39.8996 158.822 38.4075C158.864 36.9155 158.886 35.4235 158.886 33.9314C158.928 32.4394 158.95 30.8195 158.95 29.0716C158.95 28.6454 158.886 28.3043 158.758 28.0485C158.63 27.7927 158.374 27.6649 157.99 27.6649H153.575C152.808 27.6649 152.018 27.6222 151.208 27.537C150.441 27.4517 150.057 27.2599 150.057 26.9615C150.057 26.6631 150.441 26.4286 151.208 26.2581C152.018 26.0876 152.957 25.9597 154.023 25.8744C155.089 25.7891 156.177 25.7465 157.286 25.7465C158.395 25.7039 159.269 25.6826 159.909 25.6826C160.421 25.6826 160.783 25.7891 160.997 26.0023C161.253 26.1728 161.402 26.6204 161.445 27.3451L161.637 31.6934C162.618 29.7324 164.004 28.1977 165.795 27.0894C167.629 25.981 169.634 25.4268 171.809 25.4268C172.918 25.4268 174.048 25.6186 175.2 26.0023C176.351 26.386 177.396 27.0467 178.335 27.9846C179.273 28.9224 180.041 30.2013 180.638 31.8212C181.235 33.3985 181.533 35.4235 181.533 37.896V54.5855Z" fill="url(#paint0_diamond_31_2204)"/>
<path d="M39.2904 100.158C39.2904 101.139 39.3118 102.012 39.3544 102.78C39.3544 103.121 39.3544 103.441 39.3544 103.739C39.397 104.037 39.4184 104.314 39.4184 104.57C39.4184 104.868 39.4397 105.146 39.4824 105.401C39.4824 106.467 39.0772 107 38.2668 107C37.8403 107 37.5204 106.83 37.3071 106.488C37.0939 106.147 36.9872 105.828 36.9872 105.529C36.9872 105.273 36.9872 104.89 36.9872 104.378C37.0299 103.867 37.0726 103.291 37.1152 102.652C37.1578 102.012 37.1792 101.373 37.1792 100.733C37.2218 100.094 37.2432 99.54 37.2432 99.0709C37.2432 98.389 37.2218 97.8135 37.1792 97.3444C37.1792 96.8753 37.1792 96.4277 37.1792 96.0015C37.1792 95.5324 37.1578 95.0639 37.1152 94.5948C37.1152 94.1257 37.1152 93.5502 37.1152 92.8683C37.1152 92.2713 37.1792 91.7597 37.3071 91.3336C37.4351 90.9075 37.7763 90.6942 38.3308 90.6942C38.9279 90.6942 39.3118 91.0993 39.4824 91.9091C39.653 92.6764 39.7383 93.5292 39.7383 94.4669C39.7383 95.7882 40.0368 97.0886 40.634 98.3675C41.2737 99.6464 42.1694 100.776 43.321 101.757C44.5152 102.737 45.9654 103.547 47.6715 104.186C49.4203 104.783 51.4246 105.082 53.6853 105.082C55.2208 105.082 56.7138 104.89 58.1637 104.506C59.6137 104.122 60.8933 103.589 62.0024 102.908C63.154 102.183 64.0711 101.309 64.7534 100.286C65.4786 99.2203 65.841 98.0263 65.841 96.7049C65.841 95.3836 65.2867 94.2111 64.1776 93.188C63.0685 92.1649 61.6825 91.2482 60.0191 90.4384C58.3982 89.5856 56.6498 88.7973 54.7729 88.0724C52.9391 87.3476 51.2542 86.6232 49.7187 85.8983C48.3537 85.2589 46.9677 84.534 45.5602 83.7242C44.1527 82.9144 42.8518 81.8913 41.6576 80.6549C40.4634 79.376 39.4824 77.8413 38.7146 76.0509C37.9895 74.2179 37.627 71.9584 37.627 69.2727C37.627 66.8853 38.1175 64.6687 39.0985 62.6225C40.1221 60.5763 41.423 58.8073 43.0011 57.3151C44.5792 55.7805 46.3493 54.587 48.3112 53.7342C50.273 52.8815 52.2138 52.4553 54.1332 52.4553C57.2466 52.4553 59.8911 53.3081 62.0664 55.0131C64.2416 56.6757 65.969 59.3613 67.2485 63.0701C67.0781 60.3845 66.9501 58.4022 66.8647 57.1233C66.7792 55.8019 66.7367 55.1195 66.7367 55.0771C66.7367 54.0115 67.1421 53.4785 67.9523 53.4785C68.3786 53.4785 68.6985 53.6488 68.9119 53.99C69.1254 54.3312 69.2318 54.6509 69.2318 54.9492C69.2318 56.4414 69.1893 57.997 69.1039 59.6171C69.0184 61.1943 68.9759 62.7504 68.9759 64.2851C68.9759 65.6494 68.9974 66.8214 69.0399 67.802C69.0824 68.7827 69.1039 69.9547 69.1039 71.319C69.1039 71.9159 69.0399 72.4275 68.9119 72.8536C68.784 73.2798 68.4426 73.4931 67.8883 73.4931C67.291 73.4931 66.9071 73.1094 66.7367 72.3421C66.6087 71.5323 66.5448 70.658 66.5448 69.7204C66.3743 67.4184 65.969 65.3297 65.3292 63.4538C64.6894 61.5355 63.8362 59.9154 62.7701 58.594C61.7465 57.2297 60.5094 56.1856 59.0594 55.4607C57.6519 54.7359 56.095 54.3737 54.3891 54.3737C52.3843 54.3737 50.5079 54.8213 48.7591 55.7165C47.053 56.5693 45.5602 57.7203 44.2807 59.1695C43.0437 60.6188 42.0628 62.2813 41.3377 64.1572C40.6126 65.9901 40.2501 67.8874 40.2501 69.8482C40.2501 71.9799 40.5273 73.7703 41.0818 75.2196C41.6789 76.6688 42.4467 77.9267 43.385 78.9923C44.366 80.0154 45.4749 80.8892 46.7118 81.614C47.9489 82.2959 49.2069 82.9354 50.4865 83.5324C51.766 84.1294 53.4079 84.8113 55.4127 85.5786C57.46 86.3459 59.4433 87.2626 61.3626 88.3282C63.3244 89.3938 64.9878 90.6087 66.3528 91.973C67.7603 93.3374 68.4641 94.9145 68.4641 96.7049C68.4641 98.5808 67.9738 100.179 66.9926 101.501C66.0115 102.78 64.7749 103.845 63.2819 104.698C61.8319 105.508 60.2535 106.083 58.5476 106.424C56.8417 106.808 55.2848 107 53.8773 107C52.5122 107 51.1047 106.872 49.6548 106.616C48.2473 106.361 46.8824 105.977 45.5602 105.465C44.238 104.911 43.0225 104.208 41.9135 103.355C40.8472 102.46 39.9728 101.394 39.2904 100.158ZM93.0824 91.973C93.0824 91.419 93.0824 90.886 93.0824 90.3744C93.1248 89.8204 93.1463 89.3938 93.1463 89.0955C93.1463 85.7704 92.549 83.2126 91.355 81.4222C90.1609 79.5893 88.1561 78.6726 85.3411 78.6726C84.4029 78.6726 83.4858 78.779 82.5901 78.9923C81.6944 79.1627 80.8842 79.4399 80.1589 79.8236C79.4767 80.2073 78.9219 80.6763 78.4955 81.2304C78.0692 81.7844 77.8558 82.4028 77.8558 83.0848C77.8558 83.5963 77.9837 83.916 78.2396 84.0439C78.4955 84.1718 78.7939 84.2782 79.1353 84.3636C79.4767 84.4491 79.8176 84.5979 80.1589 84.8113C80.5428 84.9816 80.7347 85.4082 80.7347 86.0901C80.7347 86.7296 80.5213 87.2626 80.095 87.6888C79.7111 88.1149 79.1568 88.3282 78.4315 88.3282C77.4504 88.3282 76.6827 87.9445 76.1284 87.1772C75.6165 86.3674 75.3606 85.4082 75.3606 84.2997C75.3606 83.1487 75.6165 82.1256 76.1284 81.2304C76.6827 80.2927 77.4079 79.5039 78.3036 78.8644C79.2418 78.1825 80.3509 77.671 81.6304 77.3298C82.91 76.9461 84.3175 76.7542 85.8529 76.7542C89.2222 76.7542 91.6964 77.7134 93.2743 79.6318C94.8952 81.5501 95.7054 84.6194 95.7054 88.8398C95.7054 89.3513 95.6839 90.0122 95.6415 90.822C95.6415 91.5894 95.62 92.3992 95.5775 93.2519C95.5775 94.1047 95.556 94.9784 95.5135 95.8737C95.5135 96.7264 95.5135 97.4938 95.5135 98.1757C95.5135 99.497 95.556 100.584 95.6415 101.437C95.7269 102.29 95.8759 102.971 96.0893 103.483C96.3452 103.952 96.6436 104.293 96.985 104.506C97.3688 104.677 97.8167 104.762 98.3285 104.762C98.9258 104.762 99.3946 104.677 99.736 104.506C100.077 104.293 100.333 104.016 100.504 103.675C100.717 103.334 100.845 102.95 100.888 102.524C100.973 102.055 101.037 101.586 101.08 101.117C101.122 100.606 101.335 100.35 101.719 100.35C102.061 100.35 102.274 100.478 102.359 100.733C102.487 100.989 102.551 101.351 102.551 101.82C102.551 103.653 102.146 104.932 101.335 105.657C100.525 106.339 99.5016 106.68 98.2645 106.68C97.1129 106.68 96.0678 106.403 95.1296 105.849C94.234 105.252 93.5942 104.272 93.2103 102.908C91.8453 104.144 90.3313 105.082 88.6679 105.721C87.047 106.361 85.2346 106.68 83.2299 106.68C80.2444 106.68 77.8558 105.998 76.0644 104.634C74.3155 103.27 73.4413 101.458 73.4413 99.1988C73.4413 98.0478 73.6972 96.9822 74.2091 96.0015C74.7209 94.9784 75.4461 94.1047 76.3843 93.3798C77.3224 92.6549 78.453 92.1009 79.7751 91.7173C81.0971 91.2911 82.5686 91.0778 84.1895 91.0778C85.8104 91.0778 87.3669 91.3121 88.8599 91.7812C90.3528 92.2503 91.7603 92.9962 93.0824 94.0193V91.973ZM76.0644 99.1988C76.0644 100.904 76.7467 102.268 78.1117 103.291C79.5192 104.272 81.332 104.762 83.5497 104.762C84.8293 104.762 86.0449 104.592 87.1964 104.25C88.348 103.909 89.3502 103.462 90.2034 102.908C91.0991 102.311 91.8028 101.65 92.3146 100.925C92.8264 100.158 93.0824 99.3481 93.0824 98.4954C93.0824 97.7281 92.8479 97.0032 92.3786 96.3213C91.9523 95.6394 91.355 95.0639 90.5872 94.5948C89.8195 94.0832 88.9023 93.6995 87.8362 93.4438C86.8126 93.1455 85.7035 92.9962 84.5094 92.9962C83.3153 92.9962 82.2062 93.1455 81.1826 93.4438C80.1589 93.742 79.2633 94.1686 78.4955 94.7227C77.7278 95.2342 77.1305 95.8737 76.7042 96.641C76.2778 97.4083 76.0644 98.2611 76.0644 99.1988ZM125.863 82.3814C125.479 83.0633 125.01 84.0654 124.456 85.3868C123.944 86.6656 123.39 88.1149 122.792 89.735C122.195 91.3121 121.598 92.9537 121.001 94.6587C120.404 96.3637 119.849 97.9623 119.338 99.4546C118.826 100.904 118.378 102.162 117.994 103.227C117.61 104.293 117.376 104.954 117.29 105.21C116.864 106.318 116.373 106.872 115.819 106.872C115.222 106.872 114.753 106.382 114.411 105.401C113.729 103.313 113.11 101.479 112.556 99.9022C112.044 98.325 111.575 96.8968 111.148 95.6179C110.765 94.2965 110.402 93.1026 110.061 92.037C109.719 90.9284 109.357 89.8204 108.973 88.7119C108.589 87.6033 108.184 86.4314 107.758 85.1949C107.331 83.9585 106.819 82.5732 106.222 81.0385C106.009 80.4416 105.71 79.973 105.327 79.6318C104.943 79.2906 104.516 79.0348 104.047 78.8644C103.578 78.6941 103.045 78.5872 102.448 78.5447C101.893 78.5022 101.317 78.4593 100.72 78.4168C99.5261 78.3743 98.9288 78.1186 98.9288 77.6495C98.9288 77.2233 99.4831 77.01 100.592 77.01C100.763 77.01 101.36 77.01 102.384 77.01C103.407 77.01 104.495 77.01 105.646 77.01C106.798 76.9676 107.864 76.9461 108.845 76.9461C109.826 76.9461 110.402 76.9461 110.573 76.9461C111.98 76.9461 112.684 77.2019 112.684 77.7134C112.684 78.0546 112.449 78.2889 111.98 78.4168C111.554 78.5022 111.021 78.5662 110.381 78.6086C109.187 78.6511 108.589 78.9284 108.589 79.4399C108.589 79.5678 108.589 79.7172 108.589 79.8875C108.632 80.0579 108.717 80.3776 108.845 80.8467C108.973 81.3158 109.187 81.9977 109.485 82.8929C109.783 83.7881 110.21 85.067 110.765 86.7296C111.319 88.3497 112.002 90.4169 112.812 92.9322C113.665 95.4046 114.71 98.4529 115.947 102.076C117.354 98.0693 118.506 94.7866 119.402 92.2288C120.34 89.671 121.065 87.6463 121.577 86.1541C122.089 84.6619 122.43 83.5963 122.6 82.9569C122.814 82.275 122.92 81.8059 122.92 81.5501C122.92 81.081 122.664 80.8042 122.153 80.7188C121.641 80.5909 120.66 80.527 119.21 80.527C118.314 80.527 117.866 80.2712 117.866 79.7596C117.866 79.376 118.271 79.1417 119.082 79.0563C119.935 78.9708 121.555 78.9284 123.944 78.9284C125.65 78.9284 127.036 78.9498 128.102 78.9923C129.169 78.9923 130 79.0348 130.598 79.1202C131.237 79.1627 131.664 79.2481 131.877 79.376C132.091 79.5039 132.197 79.6532 132.197 79.8236C132.197 80.2073 131.856 80.4416 131.173 80.527C130.534 80.5694 129.723 80.6334 128.742 80.7188C127.889 80.8042 127.271 80.9531 126.887 81.1664C126.503 81.3797 126.162 81.7844 125.863 82.3814ZM155.113 87.2411C155.838 87.2411 156.2 86.8575 156.2 86.0901C156.2 85.2374 156.03 84.3212 155.689 83.3405C155.347 82.3174 154.814 81.3797 154.089 80.527C153.364 79.6742 152.426 78.9708 151.274 78.4168C150.165 77.8198 148.822 77.5216 147.244 77.5216C145.623 77.5216 144.215 77.8198 143.021 78.4168C141.87 79.0138 140.867 79.8021 140.014 80.7828C139.204 81.7204 138.543 82.7865 138.031 83.98C137.562 85.131 137.221 86.3035 137.007 87.4969L155.113 87.2411ZM136.751 89.4153C136.709 89.8844 136.666 90.353 136.623 90.822C136.623 91.2482 136.623 91.6533 136.623 92.037C136.623 93.5716 136.794 95.0848 137.135 96.577C137.519 98.0693 138.116 99.4121 138.927 100.606C139.78 101.799 140.867 102.78 142.189 103.547C143.554 104.272 145.196 104.634 147.116 104.634C148.865 104.634 150.4 104.336 151.722 103.739C153.044 103.142 154.132 102.354 154.985 101.373C155.881 100.392 156.542 99.2627 156.968 97.9838C157.438 96.7049 157.672 95.3836 157.672 94.0193C157.672 93.2519 158.034 92.8683 158.76 92.8683C159.485 92.8683 159.847 93.2519 159.847 94.0193C159.847 95.6818 159.527 97.2804 158.888 98.8151C158.248 100.35 157.352 101.714 156.2 102.908C155.091 104.059 153.769 104.975 152.234 105.657C150.698 106.339 149.035 106.68 147.244 106.68C144.983 106.68 143 106.297 141.294 105.529C139.63 104.762 138.244 103.696 137.135 102.332C136.026 100.968 135.173 99.3691 134.576 97.5362C134.022 95.6603 133.744 93.6571 133.744 91.5254C133.744 89.181 134.086 87.0278 134.768 85.067C135.493 83.0633 136.474 81.3583 137.711 79.9515C138.948 78.5447 140.398 77.4576 142.061 76.6903C143.725 75.8805 145.516 75.4754 147.436 75.4754C149.483 75.4754 151.232 75.9015 152.682 76.7542C154.132 77.564 155.305 78.5662 156.2 79.7596C157.139 80.9106 157.821 82.1256 158.248 83.4045C158.717 84.6409 158.952 85.685 158.952 86.5378C158.952 87.2197 158.76 87.8381 158.376 88.3922C158.034 88.9462 157.48 89.2449 156.712 89.2874C155.603 89.3298 154.239 89.3513 152.618 89.3513C151.04 89.3513 149.397 89.3513 147.691 89.3513C147.18 89.3513 146.433 89.3513 145.452 89.3513C144.471 89.3513 143.427 89.3728 142.317 89.4153C141.251 89.4153 140.206 89.4153 139.183 89.4153C138.159 89.4153 137.349 89.4153 136.751 89.4153ZM185.424 83.6603C185.424 84.1718 185.381 84.7048 185.296 85.2589C185.21 85.7704 185.04 86.2605 184.784 86.7296C184.57 87.1987 184.251 87.5824 183.824 87.8806C183.44 88.1788 182.929 88.3282 182.289 88.3282C181.563 88.3282 181.009 88.1364 180.625 87.7527C180.284 87.369 180.114 86.879 180.114 86.282C180.114 85.728 180.241 85.3013 180.497 85.0031C180.796 84.7049 181.095 84.4491 181.393 84.2358C181.734 84.0224 182.033 83.7881 182.289 83.5324C182.587 83.2766 182.737 82.8929 182.737 82.3814C182.737 81.6565 182.459 81.124 181.905 80.7828C181.351 80.3991 180.647 80.2073 179.794 80.2073C179.026 80.2073 178.194 80.3776 177.298 80.7188C176.403 81.06 175.571 81.6355 174.803 82.4453C174.036 83.2551 173.396 84.3212 172.884 85.6425C172.372 86.9214 172.116 88.52 172.116 90.4384V103.995H174.931C177.149 103.995 178.706 104.101 179.602 104.314C180.497 104.528 180.945 104.804 180.945 105.146C180.945 105.401 180.796 105.615 180.497 105.785C180.241 105.913 179.964 105.977 179.666 105.977C179.068 105.977 178.365 105.977 177.554 105.977C176.787 105.934 175.997 105.913 175.187 105.913C174.377 105.87 173.588 105.849 172.82 105.849C172.052 105.807 171.391 105.785 170.837 105.785C169.728 105.785 168.726 105.828 167.83 105.913C166.934 105.955 165.953 105.977 164.887 105.977C164.546 105.977 164.226 105.891 163.927 105.721C163.629 105.551 163.479 105.359 163.479 105.146C163.479 104.89 163.821 104.656 164.503 104.442C165.185 104.229 166.081 104.08 167.19 103.995C167.958 103.952 168.427 103.845 168.598 103.675C168.768 103.505 168.917 103.057 169.045 102.332C169.173 101.65 169.259 100.776 169.301 99.7103C169.387 98.6447 169.451 97.259 169.493 95.5539C169.579 93.806 169.621 91.6748 169.621 89.1595C169.664 86.6442 169.685 83.5963 169.685 80.0154C169.685 79.4184 169.365 79.1202 168.726 79.1202H162.392C161.965 79.1202 161.646 79.0138 161.432 78.8005C161.219 78.5872 161.112 78.4168 161.112 78.2889C161.112 78.1186 161.411 77.9692 162.008 77.8413C162.605 77.671 163.33 77.5431 164.183 77.4576C165.036 77.3298 165.953 77.2443 166.934 77.2019C167.958 77.1594 168.854 77.1379 169.621 77.1379C170.73 77.1379 171.477 77.2658 171.86 77.5216C172.244 77.7774 172.436 78.4593 172.436 79.5678V82.7011C173.46 81.2089 174.633 80.1008 175.955 79.376C177.277 78.6086 178.685 78.225 180.177 78.225C181.755 78.225 183.014 78.6511 183.952 79.5039C184.933 80.3566 185.424 81.7419 185.424 83.6603Z" fill="url(#paint1_diamond_31_2204)"/>
<path d="M258.029 35.0857H205.677V66.3113H258.029V35.0857Z" fill="url(#paint2_diamond_31_2204)"/>
<path d="M258.029 68.8092H205.677V100.035H258.029V68.8092Z" fill="url(#paint3_diamond_31_2204)"/>
<path d="M204.428 102.301L259.28 102.331L204.428 102.301Z" fill="url(#paint4_diamond_31_2204)"/>
<path d="M203.178 31.2917H194.707V41.4402H203.178V31.2917Z" fill="url(#paint5_diamond_31_2204)"/>
<path d="M199.429 31.2917H198.456C196.385 31.2917 194.707 32.9692 194.707 35.0385V37.6935C194.707 39.7627 196.385 41.4402 198.456 41.4402H199.429C201.5 41.4402 203.178 39.7627 203.178 37.6935V35.0385C203.178 32.9692 201.5 31.2917 199.429 31.2917Z" fill="url(#paint6_diamond_31_2204)"/>
<path d="M203.178 43.9382H194.707V54.0867H203.178V43.9382Z" fill="url(#paint7_diamond_31_2204)"/>
<path d="M199.429 43.9382H198.456C196.385 43.9382 194.707 45.6157 194.707 47.685V50.34C194.707 52.4092 196.385 54.0867 198.456 54.0867H199.429C201.5 54.0867 203.178 52.4092 203.178 50.34V47.685C203.178 45.6157 201.5 43.9382 199.429 43.9382Z" fill="url(#paint8_diamond_31_2204)"/>
<path d="M203.178 56.5843H194.707V66.7327H203.178V56.5843Z" fill="url(#paint9_diamond_31_2204)"/>
<path d="M199.429 56.5843H198.456C196.385 56.5843 194.707 58.2617 194.707 60.331V62.986C194.707 65.0553 196.385 66.7327 198.456 66.7327H199.429C201.5 66.7327 203.178 65.0553 203.178 62.986V60.331C203.178 58.2617 201.5 56.5843 199.429 56.5843Z" fill="url(#paint10_diamond_31_2204)"/>
<path d="M203.178 69.2308H194.707V79.3793H203.178V69.2308Z" fill="url(#paint11_diamond_31_2204)"/>
<path d="M199.429 69.2308H198.456C196.385 69.2308 194.707 70.9083 194.707 72.9775V75.6325C194.707 77.7018 196.385 79.3793 198.456 79.3793H199.429C201.5 79.3793 203.178 77.7018 203.178 75.6325V72.9775C203.178 70.9083 201.5 69.2308 199.429 69.2308Z" fill="url(#paint12_diamond_31_2204)"/>
<path d="M203.178 81.8773H194.707V92.0258H203.178V81.8773Z" fill="url(#paint13_diamond_31_2204)"/>
<path d="M199.429 81.8773H198.456C196.385 81.8773 194.707 83.5548 194.707 85.6241V88.279C194.707 90.3483 196.385 92.0258 198.456 92.0258H199.429C201.5 92.0258 203.178 90.3483 203.178 88.279V85.6241C203.178 83.5548 201.5 81.8773 199.429 81.8773Z" fill="url(#paint14_diamond_31_2204)"/>
<path d="M203.178 94.5233H194.707V104.672H203.178V94.5233Z" fill="url(#paint15_diamond_31_2204)"/>
<path d="M199.429 94.5233H198.456C196.385 94.5233 194.707 96.2008 194.707 98.2701V100.925C194.707 102.994 196.385 104.672 198.456 104.672H199.429C201.5 104.672 203.178 102.994 203.178 100.925V98.2701C203.178 96.2008 201.5 94.5233 199.429 94.5233Z" fill="url(#paint16_diamond_31_2204)"/>
<path d="M260.529 31.2917H267.903V41.4402H260.529V31.2917Z" fill="url(#paint17_diamond_31_2204)"/>
<path d="M260.529 34.9769C260.529 32.9416 262.179 31.2917 264.216 31.2917C266.252 31.2917 267.903 32.9416 267.903 34.9769V37.755C267.903 39.7903 266.252 41.4402 264.216 41.4402C262.179 41.4402 260.529 39.7903 260.529 37.755V34.9769Z" fill="url(#paint18_diamond_31_2204)"/>
<path d="M260.529 43.9382H267.903V54.0867H260.529V43.9382Z" fill="url(#paint19_diamond_31_2204)"/>
<path d="M260.529 47.6234C260.529 45.5882 262.179 43.9382 264.216 43.9382C266.252 43.9382 267.903 45.5882 267.903 47.6234V50.4015C267.903 52.4368 266.252 54.0867 264.216 54.0867C262.179 54.0867 260.529 52.4368 260.529 50.4015V47.6234Z" fill="url(#paint20_diamond_31_2204)"/>
<path d="M260.529 56.5843H267.903V66.7327H260.529V56.5843Z" fill="url(#paint21_diamond_31_2204)"/>
<path d="M260.529 60.2695C260.529 58.2342 262.179 56.5843 264.216 56.5843C266.252 56.5843 267.903 58.2342 267.903 60.2695V63.0475C267.903 65.0828 266.252 66.7327 264.216 66.7327C262.179 66.7327 260.529 65.0828 260.529 63.0475V60.2695Z" fill="url(#paint22_diamond_31_2204)"/>
<path d="M260.529 69.2308H267.903V79.3793H260.529V69.2308Z" fill="url(#paint23_diamond_31_2204)"/>
<path d="M260.529 72.916C260.529 70.8807 262.179 69.2308 264.216 69.2308C266.252 69.2308 267.903 70.8807 267.903 72.916V75.6941C267.903 77.7293 266.252 79.3793 264.216 79.3793C262.179 79.3793 260.529 77.7293 260.529 75.6941V72.916Z" fill="url(#paint24_diamond_31_2204)"/>
<path d="M260.529 81.8773H267.903V92.0258H260.529V81.8773Z" fill="url(#paint25_diamond_31_2204)"/>
<path d="M260.529 85.5625C260.529 83.5272 262.179 81.8773 264.216 81.8773C266.252 81.8773 267.903 83.5272 267.903 85.5625V88.3406C267.903 90.3759 266.252 92.0258 264.216 92.0258C262.179 92.0258 260.529 90.3759 260.529 88.3406V85.5625Z" fill="url(#paint26_diamond_31_2204)"/>
<path d="M267.903 94.5233H260.529V104.672H266.653C267.344 104.672 267.903 104.113 267.903 103.423V94.5233Z" fill="url(#paint27_diamond_31_2204)"/>
<path d="M260.529 98.2085C260.529 96.1732 262.179 94.5233 264.216 94.5233C266.252 94.5233 267.903 96.1732 267.903 98.2085V100.987C267.903 103.022 266.252 104.672 264.216 104.672C262.179 104.672 260.529 103.022 260.529 100.987V98.2085Z" fill="url(#paint28_diamond_31_2204)"/>
<path d="M204.428 32.5878L259.28 32.6198M204.428 102.301L259.28 102.331M193.61 30.0428V105.92M269 30.0428V105.92M3.30318 48.7026C3.30318 49.6832 3.32453 50.557 3.36716 51.3243C3.36716 51.6655 3.36716 51.9852 3.36716 52.2835C3.4098 52.5817 3.43114 52.859 3.43114 53.1148C3.43114 53.413 3.45248 53.6903 3.49512 53.946C3.49512 55.0116 3.08991 55.5447 2.27955 55.5447C1.85303 55.5447 1.53315 55.3743 1.31989 55.0331C1.10663 54.6919 1 54.3722 1 54.0739C1 53.8182 1 53.4345 1 52.9229C1.04265 52.4114 1.0853 51.8359 1.12795 51.1964C1.1706 50.557 1.19193 49.9175 1.19193 49.2781C1.23458 48.6387 1.25591 48.0846 1.25591 47.6155C1.25591 46.9336 1.23458 46.3581 1.19193 45.889C1.19193 45.4199 1.19193 44.9723 1.19193 44.5462C1.19193 44.0771 1.1706 43.6085 1.12795 43.1394C1.12795 42.6703 1.12795 42.095 1.12795 41.4129C1.12795 40.8161 1.19193 40.3045 1.31989 39.8783C1.44784 39.452 1.78906 39.2388 2.34352 39.2388C2.94066 39.2388 3.32453 39.6438 3.49512 40.4538C3.6657 41.2211 3.75102 42.0737 3.75102 43.0115C3.75102 44.3329 4.04957 45.6333 4.64671 46.9122C5.28648 48.191 6.18216 49.3206 7.33375 50.3012C8.52798 51.2819 9.97817 52.0917 11.6842 52.7311C13.4329 53.3281 15.4375 53.6263 17.6981 53.6263C19.2335 53.6263 20.7264 53.4345 22.1765 53.0508C23.6266 52.6672 24.9062 52.1341 26.0151 51.4522C27.1667 50.7273 28.0837 49.8536 28.7662 48.8305C29.4912 47.7649 29.8538 46.5709 29.8538 45.2496C29.8538 43.9282 29.2993 42.7558 28.1904 41.7326C27.0814 40.7095 25.6952 39.793 24.0318 38.983C22.4111 38.1304 20.6624 37.3418 18.7857 36.6171C16.9517 35.8924 15.2669 35.1677 13.7315 34.443C12.3666 33.8035 10.9805 33.0788 9.57296 32.2689C8.16546 31.4589 6.86457 30.4358 5.67034 29.1995C4.47612 27.9206 3.49512 26.386 2.72739 24.5955C2.00231 22.7625 1.63977 20.5031 1.63977 17.8174C1.63977 15.4301 2.13026 13.2134 3.11125 11.1672C4.13489 9.12095 5.43578 7.35184 7.01387 5.85978C8.59196 4.32511 10.362 3.1315 12.324 2.27889C14.2859 1.42628 16.2266 1 18.1459 1C21.2595 1 23.9039 1.85261 26.0791 3.55778C28.2543 5.22034 29.9817 7.90601 31.2613 11.6148C31.0907 8.92912 30.9627 6.94684 30.8774 5.66795C30.7921 4.34645 30.7495 3.66434 30.7495 3.62172C30.7495 2.556 31.1547 2.02311 31.965 2.02311C32.3915 2.02311 32.7114 2.19361 32.9247 2.53467C33.138 2.87572 33.2446 3.19544 33.2446 3.49384C33.2446 4.98589 33.2019 6.54184 33.1166 8.16178C33.0313 9.73907 32.9887 11.2951 32.9887 12.8297C32.9887 14.1939 33.01 15.3662 33.0526 16.3467C33.0953 17.3272 33.1166 18.4995 33.1166 19.8636C33.1166 20.4605 33.0526 20.972 32.9247 21.3983C32.7967 21.8246 32.4555 22.0377 31.901 22.0377C31.3039 22.0377 30.92 21.6541 30.7495 20.8867C30.6215 20.0768 30.5575 19.2028 30.5575 18.265C30.3869 15.963 29.9817 13.8742 29.342 11.9985C28.7022 10.0801 27.8491 8.46018 26.7829 7.13867C25.7592 5.77451 24.5223 4.73011 23.0722 4.00539C21.6647 3.28067 20.1079 2.91834 18.4018 2.91834C16.3972 2.91834 14.5206 3.36595 12.7718 4.26117C11.0658 5.11378 9.57296 6.26478 8.29341 7.71417C7.0565 9.16356 6.07555 10.8261 5.35046 12.7018C4.62536 14.5349 4.26284 16.432 4.26284 18.3929C4.26284 20.5244 4.5401 22.3149 5.09455 23.7642C5.69169 25.2136 6.45941 26.4712 7.39773 27.537C8.37873 28.5601 9.48764 29.434 10.7246 30.1587C11.9615 30.8408 13.2197 31.4802 14.4992 32.077C15.7788 32.6739 17.4208 33.3559 19.4255 34.1233C21.4727 34.8906 23.456 35.8071 25.3754 36.8729C27.3373 37.9386 29.0007 39.1535 30.3656 40.5177C31.7731 41.8819 32.4768 43.4591 32.4768 45.2496C32.4768 47.1255 31.9864 48.7241 31.0054 50.0454C30.0244 51.3243 28.7875 52.3899 27.2947 53.2427C25.8445 54.0525 24.2664 54.628 22.5604 54.9692C20.8543 55.3528 19.2975 55.5447 17.89 55.5447C16.5251 55.5447 15.1176 55.4168 13.6675 55.161C12.26 54.9052 10.8951 54.5215 9.57296 54.01C8.25078 53.456 7.03521 52.7526 5.92625 51.8998C4.85998 51.0046 3.98559 49.939 3.30318 48.7026ZM60.1735 27.1533C60.131 26.6844 60.0881 26.1302 60.0456 25.4907C60.0456 24.8513 60.0456 24.2332 60.0456 23.6364C60.0456 23.1674 60.131 22.7625 60.3015 22.4214C60.5149 22.0377 60.7918 21.8459 61.1332 21.8459C61.4746 21.8459 61.7305 22.0164 61.9009 22.3575C62.1143 22.6985 62.2208 23.1035 62.2208 23.5724C62.2208 24.1692 62.1993 24.9579 62.1568 25.9384C62.1568 26.8762 62.1568 27.8567 62.1568 28.8798C62.1568 29.9029 62.1568 30.8834 62.1568 31.8212C62.1568 32.7591 62.1568 33.5051 62.1568 34.0593C62.1568 34.4004 62.0714 34.7201 61.9009 35.0185C61.7305 35.3169 61.4746 35.4661 61.1332 35.4661C60.7918 35.4661 60.5149 35.3808 60.3015 35.2103C60.131 34.9971 60.0456 34.6348 60.0456 34.1233C60.0456 31.5229 59.4698 29.4553 58.3182 27.9206C57.1666 26.386 55.1618 25.6186 52.3043 25.6186C50.5984 25.6186 49.02 25.981 47.57 26.7057C46.1625 27.3877 44.9256 28.3682 43.8593 29.6471C42.8357 30.926 42.0253 32.4607 41.4282 34.2511C40.8737 35.999 40.5965 37.9173 40.5965 40.0061C40.5965 43.9707 41.5561 47.104 43.4754 49.406C45.4374 51.708 48.1673 52.859 51.6645 52.859C53.7543 52.859 55.5887 52.326 57.1666 51.2604C58.7445 50.1948 60.195 48.5532 61.517 46.3366C61.9434 45.6972 62.3912 45.3775 62.8606 45.3775C63.074 45.3775 63.2659 45.4839 63.4364 45.6972C63.6068 45.8676 63.6923 46.0809 63.6923 46.3366C63.6923 46.7628 63.4789 47.3383 63.0525 48.0632C60.3655 52.6247 56.4413 54.9052 51.2807 54.9052C49.2334 54.9052 47.3781 54.5215 45.7147 53.7542C44.0512 52.9869 42.6011 51.9423 41.3642 50.6209C40.17 49.2566 39.2316 47.6795 38.5492 45.889C37.9094 44.0986 37.5895 42.1803 37.5895 40.134C37.5895 37.832 37.9521 35.6793 38.6771 33.6756C39.4449 31.672 40.4899 29.9455 41.812 28.4961C43.1342 27.0041 44.7124 25.8318 46.5464 24.9792C48.3802 24.1266 50.3635 23.7003 52.4962 23.7003C54.1172 23.7003 55.5672 23.9347 56.8467 24.4037C58.1263 24.83 59.2354 25.7465 60.1735 27.1533ZM89.1453 32.2049C89.1453 32.7165 89.1028 33.2494 89.0173 33.8035C88.9318 34.3151 88.7614 34.8053 88.5055 35.2743C88.2921 35.7432 87.9722 36.1269 87.5458 36.4253C87.162 36.7236 86.6501 36.8729 86.0104 36.8729C85.2851 36.8729 84.7308 36.681 84.347 36.2974C84.0056 35.9137 83.8351 35.4235 83.8351 34.8266C83.8351 34.2725 83.9631 33.8461 84.219 33.5478C84.5174 33.2494 84.8163 32.9936 85.1147 32.7804C85.4561 32.5673 85.7545 32.3328 86.0104 32.077C86.3088 31.8212 86.4582 31.4376 86.4582 30.926C86.4582 30.2013 86.1808 29.6685 85.6265 29.3274C85.0722 28.9437 84.3685 28.7519 83.5153 28.7519C82.7475 28.7519 81.9158 28.9224 81.0201 29.2635C80.1245 29.6045 79.2927 30.18 78.525 30.99C77.7573 31.7999 77.1175 32.8657 76.6057 34.1872C76.0939 35.4661 75.838 37.0647 75.838 38.983V52.5393H78.653C80.8707 52.5393 82.4276 52.6457 83.3233 52.859C84.219 53.0723 84.6668 53.3491 84.6668 53.6903C84.6668 53.946 84.5174 54.1594 84.219 54.3297C83.9631 54.4576 83.6857 54.5215 83.3873 54.5215C82.79 54.5215 82.0863 54.5215 81.276 54.5215C80.5083 54.4791 79.7191 54.4576 78.9089 54.4576C78.0987 54.4151 77.3095 54.3937 76.5417 54.3937C75.774 54.3512 75.1127 54.3297 74.5584 54.3297C73.4493 54.3297 72.4472 54.3722 71.5515 54.4576C70.6558 54.5001 69.6747 54.5215 68.6085 54.5215C68.2672 54.5215 67.9473 54.4361 67.6489 54.2658C67.3505 54.0954 67.201 53.9036 67.201 53.6903C67.201 53.4345 67.5424 53.2002 68.2247 52.9869C68.9069 52.7736 69.8026 52.6247 70.9117 52.5393C71.6794 52.4968 72.1488 52.3899 72.3192 52.2195C72.4897 52.0492 72.6391 51.6016 72.7671 50.8767C72.895 50.1948 72.9805 49.3206 73.023 48.255C73.1084 47.1894 73.1724 45.8036 73.2149 44.0986C73.3004 42.3508 73.3429 40.2193 73.3429 37.7041C73.3853 35.189 73.4068 32.141 73.4068 28.5601C73.4068 27.9632 73.087 27.6649 72.4472 27.6649H66.1134C65.6871 27.6649 65.3672 27.5583 65.1538 27.3451C64.9403 27.132 64.8339 26.9615 64.8339 26.8336C64.8339 26.6631 65.1323 26.5139 65.7296 26.386C66.3268 26.2155 67.0516 26.0876 67.9048 26.0023C68.758 25.8744 69.6747 25.7891 70.6558 25.7465C71.6794 25.7039 72.5751 25.6826 73.3429 25.6826C74.452 25.6826 75.1982 25.8105 75.5821 26.0662C75.9659 26.322 76.1579 27.0041 76.1579 28.1125V31.2457C77.1815 29.7537 78.3546 28.6454 79.6766 27.9206C80.9986 27.1533 82.4061 26.7696 83.8991 26.7696C85.4771 26.7696 86.7356 27.1959 87.6738 28.0485C88.6549 28.9011 89.1453 30.2866 89.1453 32.2049ZM114.002 35.7858C114.728 35.7858 115.09 35.4021 115.09 34.6348C115.09 33.7822 114.92 32.8657 114.578 31.8852C114.237 30.8621 113.704 29.9242 112.979 29.0716C112.254 28.219 111.315 27.5156 110.164 26.9615C109.055 26.3646 107.711 26.0662 106.133 26.0662C104.512 26.0662 103.105 26.3646 101.911 26.9615C100.759 27.5583 99.757 28.3469 98.9038 29.3274C98.0936 30.2653 97.4323 31.331 96.9205 32.5246C96.4512 33.6756 96.1103 34.848 95.8969 36.0416L114.002 35.7858ZM95.641 37.9599C95.5985 38.4289 95.5555 38.8978 95.513 39.3667C95.513 39.793 95.513 40.198 95.513 40.5816C95.513 42.1163 95.6834 43.6295 96.0248 45.1217C96.4087 46.6139 97.006 47.9567 97.8162 49.1502C98.6694 50.3437 99.757 51.3243 101.079 52.0917C102.444 52.8165 104.086 53.1787 106.005 53.1787C107.754 53.1787 109.29 52.8805 110.612 52.2835C111.934 51.6865 113.021 50.8982 113.874 49.9175C114.77 48.9369 115.431 47.8074 115.858 46.5285C116.327 45.2496 116.562 43.9282 116.562 42.5639C116.562 41.7966 116.924 41.4129 117.649 41.4129C118.374 41.4129 118.737 41.7966 118.737 42.5639C118.737 44.2265 118.417 45.8251 117.777 47.3598C117.137 48.8944 116.242 50.2587 115.09 51.4522C113.981 52.6032 112.659 53.5199 111.123 54.2018C109.588 54.8837 107.925 55.2249 106.133 55.2249C103.873 55.2249 101.889 54.8413 100.183 54.0739C98.5199 53.3066 97.1339 52.241 96.0248 50.8767C94.9157 49.5124 94.063 47.9138 93.4657 46.0809C92.9114 44.205 92.634 42.2016 92.634 40.0701C92.634 37.7255 92.9754 35.5726 93.6577 33.6117C94.3829 31.6081 95.3635 29.9029 96.6006 28.4961C97.8377 27.0894 99.2877 26.0023 100.951 25.235C102.614 24.425 104.406 24.02 106.325 24.02C108.372 24.02 110.121 24.4463 111.571 25.2989C113.021 26.1089 114.194 27.1107 115.09 28.3043C116.028 29.4553 116.711 30.6702 117.137 31.9491C117.607 33.1854 117.841 34.2298 117.841 35.0824C117.841 35.7645 117.649 36.3826 117.265 36.9368C116.924 37.491 116.37 37.7894 115.602 37.832C114.493 37.8746 113.128 37.896 111.507 37.896C109.929 37.896 108.287 37.896 106.581 37.896C106.069 37.896 105.323 37.896 104.342 37.896C103.361 37.896 102.316 37.9173 101.207 37.9599C100.141 37.9599 99.0957 37.9599 98.0721 37.9599C97.0485 37.9599 96.2382 37.9599 95.641 37.9599ZM143.929 35.7858C144.655 35.7858 145.017 35.4021 145.017 34.6348C145.017 33.7822 144.847 32.8657 144.505 31.8852C144.164 30.8621 143.631 29.9242 142.906 29.0716C142.18 28.219 141.242 27.5156 140.091 26.9615C138.982 26.3646 137.638 26.0662 136.06 26.0662C134.439 26.0662 133.032 26.3646 131.838 26.9615C130.686 27.5583 129.684 28.3469 128.831 29.3274C128.02 30.2653 127.359 31.331 126.847 32.5246C126.378 33.6756 126.037 34.848 125.824 36.0416L143.929 35.7858ZM125.568 37.9599C125.525 38.4289 125.482 38.8978 125.44 39.3667C125.44 39.793 125.44 40.198 125.44 40.5816C125.44 42.1163 125.61 43.6295 125.952 45.1217C126.336 46.6139 126.933 47.9567 127.743 49.1502C128.596 50.3437 129.684 51.3243 131.006 52.0917C132.371 52.8165 134.013 53.1787 135.932 53.1787C137.681 53.1787 139.217 52.8805 140.539 52.2835C141.861 51.6865 142.948 50.8982 143.801 49.9175C144.697 48.9369 145.358 47.8074 145.785 46.5285C146.254 45.2496 146.488 43.9282 146.488 42.5639C146.488 41.7966 146.851 41.4129 147.576 41.4129C148.301 41.4129 148.664 41.7966 148.664 42.5639C148.664 44.2265 148.344 45.8251 147.704 47.3598C147.064 48.8944 146.169 50.2587 145.017 51.4522C143.908 52.6032 142.586 53.5199 141.05 54.2018C139.515 54.8837 137.851 55.2249 136.06 55.2249C133.799 55.2249 131.816 54.8413 130.11 54.0739C128.447 53.3066 127.061 52.241 125.952 50.8767C124.843 49.5124 123.99 47.9138 123.393 46.0809C122.838 44.205 122.561 42.2016 122.561 40.0701C122.561 37.7255 122.902 35.5726 123.585 33.6117C124.31 31.6081 125.29 29.9029 126.528 28.4961C127.765 27.0894 129.215 26.0023 130.878 25.235C132.541 24.425 134.333 24.02 136.252 24.02C138.299 24.02 140.048 24.4463 141.498 25.2989C142.948 26.1089 144.121 27.1107 145.017 28.3043C145.955 29.4553 146.638 30.6702 147.064 31.9491C147.534 33.1854 147.768 34.2298 147.768 35.0824C147.768 35.7645 147.576 36.3826 147.192 36.9368C146.851 37.491 146.296 37.7894 145.529 37.832C144.42 37.8746 143.055 37.896 141.434 37.896C139.856 37.896 138.214 37.896 136.508 37.896C135.996 37.896 135.25 37.896 134.269 37.896C133.288 37.896 132.243 37.9173 131.134 37.9599C130.068 37.9599 129.023 37.9599 127.999 37.9599C126.975 37.9599 126.165 37.9599 125.568 37.9599ZM181.533 54.5855H184.988C185.628 54.5855 186.268 54.6494 186.908 54.7773C187.59 54.9052 187.931 55.2035 187.931 55.6725C187.931 55.9283 187.825 56.0987 187.611 56.1841C187.398 56.312 187.142 56.3759 186.844 56.3759C186.716 56.3759 186.332 56.3759 185.692 56.3759C185.052 56.3759 184.285 56.3759 183.389 56.3759C182.493 56.4184 181.533 56.4399 180.51 56.4399C179.486 56.4399 178.527 56.4399 177.631 56.4399C176.735 56.4823 175.967 56.5038 175.328 56.5038C174.688 56.5038 174.304 56.5038 174.176 56.5038C173.152 56.5038 172.641 56.248 172.641 55.7365C172.641 55.1825 173.131 54.8628 174.112 54.7773C175.008 54.6919 175.733 54.607 176.287 54.5215C176.885 54.4361 177.353 54.3297 177.695 54.2018C178.036 54.0315 178.292 53.8396 178.463 53.6263C178.633 53.3705 178.718 53.0293 178.718 52.6032C178.804 50.6849 178.868 48.788 178.91 46.9122C178.953 44.9938 178.974 43.3527 178.974 41.9884C178.974 40.3259 178.91 38.642 178.782 36.9368C178.697 35.189 178.42 33.6117 177.951 32.2049C177.481 30.7555 176.757 29.5832 175.776 28.688C174.837 27.7927 173.515 27.3451 171.809 27.3451C170.06 27.3451 168.354 27.8567 166.691 28.8798C165.07 29.9029 163.769 31.4376 162.788 33.4838C162.063 35.0611 161.637 36.5958 161.509 38.0878C161.381 39.5372 161.317 41.0506 161.317 42.6279V51.708H165.603C166.2 51.708 166.712 51.7719 167.139 51.8998C167.565 52.0277 167.778 52.2835 167.778 52.6672C167.778 53.2641 167.053 53.5624 165.603 53.5624C165.475 53.5624 165.134 53.5624 164.58 53.5624C164.025 53.5624 163.342 53.5624 162.532 53.5624C161.765 53.5624 160.911 53.5839 159.973 53.6263C159.077 53.6263 158.224 53.6263 157.414 53.6263C156.604 53.6263 155.9 53.6263 155.303 53.6263C154.706 53.6263 154.343 53.6263 154.215 53.6263C153.49 53.6263 152.978 53.5839 152.68 53.4984C152.381 53.3705 152.232 53.2002 152.232 52.9869C152.232 52.6886 152.381 52.4538 152.68 52.2835C153.021 52.0702 153.447 51.9423 153.959 51.8998L156.838 51.708C157.478 51.6655 157.926 51.4522 158.182 51.0685C158.438 50.6849 158.587 49.8111 158.63 48.4468C158.672 46.4431 158.715 44.6526 158.758 43.0755C158.8 41.4555 158.822 39.8996 158.822 38.4075C158.864 36.9155 158.886 35.4235 158.886 33.9314C158.928 32.4394 158.95 30.8195 158.95 29.0716C158.95 28.6454 158.886 28.3043 158.758 28.0485C158.63 27.7927 158.374 27.6649 157.99 27.6649H153.575C152.808 27.6649 152.018 27.6222 151.208 27.537C150.441 27.4517 150.057 27.2599 150.057 26.9615C150.057 26.6631 150.441 26.4286 151.208 26.2581C152.018 26.0876 152.957 25.9597 154.023 25.8744C155.089 25.7891 156.177 25.7465 157.286 25.7465C158.395 25.7039 159.269 25.6826 159.909 25.6826C160.421 25.6826 160.783 25.7891 160.997 26.0023C161.253 26.1728 161.402 26.6204 161.445 27.3451L161.637 31.6934C162.618 29.7324 164.004 28.1977 165.795 27.0894C167.629 25.981 169.634 25.4268 171.809 25.4268C172.918 25.4268 174.048 25.6186 175.2 26.0023C176.351 26.386 177.396 27.0467 178.335 27.9846C179.273 28.9224 180.041 30.2013 180.638 31.8212C181.235 33.3985 181.533 35.4235 181.533 37.896V54.5855ZM39.2904 100.158C39.2904 101.139 39.3118 102.012 39.3544 102.78C39.3544 103.121 39.3544 103.441 39.3544 103.739C39.397 104.037 39.4184 104.314 39.4184 104.57C39.4184 104.868 39.4397 105.146 39.4824 105.401C39.4824 106.467 39.0772 107 38.2668 107C37.8403 107 37.5204 106.83 37.3071 106.488C37.0939 106.147 36.9872 105.828 36.9872 105.529C36.9872 105.273 36.9872 104.89 36.9872 104.378C37.0299 103.867 37.0726 103.291 37.1152 102.652C37.1578 102.012 37.1792 101.373 37.1792 100.733C37.2218 100.094 37.2432 99.54 37.2432 99.0709C37.2432 98.389 37.2218 97.8135 37.1792 97.3444C37.1792 96.8753 37.1792 96.4277 37.1792 96.0015C37.1792 95.5325 37.1578 95.0639 37.1152 94.5948C37.1152 94.1257 37.1152 93.5502 37.1152 92.8683C37.1152 92.2713 37.1792 91.7597 37.3071 91.3336C37.4351 90.9075 37.7763 90.6942 38.3308 90.6942C38.9279 90.6942 39.3118 91.0993 39.4824 91.9091C39.653 92.6764 39.7383 93.5292 39.7383 94.4669C39.7383 95.7882 40.0368 97.0886 40.634 98.3675C41.2737 99.6464 42.1694 100.776 43.321 101.757C44.5152 102.737 45.9654 103.547 47.6715 104.186C49.4203 104.783 51.4246 105.082 53.6853 105.082C55.2208 105.082 56.7138 104.89 58.1637 104.506C59.6137 104.122 60.8933 103.589 62.0024 102.908C63.154 102.183 64.0711 101.309 64.7534 100.286C65.4786 99.2203 65.841 98.0263 65.841 96.7049C65.841 95.3836 65.2867 94.2111 64.1776 93.188C63.0685 92.1649 61.6825 91.2482 60.0191 90.4384C58.3982 89.5856 56.6498 88.7973 54.7729 88.0724C52.9391 87.3476 51.2542 86.6232 49.7187 85.8983C48.3537 85.2589 46.9677 84.534 45.5602 83.7242C44.1527 82.9144 42.8518 81.8913 41.6576 80.6549C40.4634 79.376 39.4824 77.8413 38.7146 76.0509C37.9895 74.2179 37.627 71.9584 37.627 69.2727C37.627 66.8853 38.1175 64.6687 39.0985 62.6225C40.1221 60.5763 41.423 58.8073 43.0011 57.3151C44.5792 55.7805 46.3493 54.587 48.3112 53.7342C50.273 52.8815 52.2138 52.4553 54.1332 52.4553C57.2466 52.4553 59.8911 53.3081 62.0664 55.0131C64.2416 56.6757 65.969 59.3613 67.2485 63.0701C67.0781 60.3845 66.9501 58.4022 66.8647 57.1233C66.7792 55.8019 66.7367 55.1195 66.7367 55.0771C66.7367 54.0115 67.1421 53.4785 67.9523 53.4785C68.3786 53.4785 68.6985 53.6488 68.9119 53.99C69.1254 54.3312 69.2318 54.6509 69.2318 54.9492C69.2318 56.4414 69.1893 57.997 69.1039 59.6171C69.0184 61.1943 68.9759 62.7504 68.9759 64.2851C68.9759 65.6494 68.9974 66.8214 69.0399 67.802C69.0824 68.7827 69.1039 69.9546 69.1039 71.319C69.1039 71.9159 69.0399 72.4275 68.9119 72.8536C68.784 73.2798 68.4426 73.4931 67.8883 73.4931C67.291 73.4931 66.9071 73.1094 66.7367 72.3421C66.6087 71.5323 66.5448 70.658 66.5448 69.7204C66.3743 67.4184 65.969 65.3297 65.3292 63.4538C64.6894 61.5355 63.8362 59.9154 62.7701 58.594C61.7465 57.2297 60.5094 56.1856 59.0594 55.4607C57.6519 54.7359 56.095 54.3737 54.3891 54.3737C52.3843 54.3737 50.508 54.8213 48.7591 55.7165C47.053 56.5693 45.5602 57.7203 44.2807 59.1695C43.0437 60.6188 42.0628 62.2813 41.3377 64.1572C40.6126 65.9901 40.2501 67.8874 40.2501 69.8482C40.2501 71.9799 40.5273 73.7703 41.0818 75.2196C41.6789 76.6688 42.4467 77.9267 43.385 78.9923C44.366 80.0154 45.4749 80.8892 46.7118 81.614C47.9489 82.2959 49.2069 82.9354 50.4865 83.5324C51.766 84.1294 53.4079 84.8113 55.4127 85.5786C57.46 86.3459 59.4433 87.2626 61.3626 88.3282C63.3244 89.3938 64.9878 90.6087 66.3528 91.973C67.7603 93.3374 68.4641 94.9145 68.4641 96.7049C68.4641 98.5808 67.9738 100.179 66.9926 101.501C66.0115 102.78 64.7749 103.845 63.2819 104.698C61.8319 105.508 60.2535 106.083 58.5476 106.424C56.8417 106.808 55.2848 107 53.8773 107C52.5122 107 51.1047 106.872 49.6548 106.616C48.2473 106.361 46.8824 105.977 45.5602 105.465C44.238 104.911 43.0225 104.208 41.9135 103.355C40.8472 102.46 39.9728 101.394 39.2904 100.158ZM93.0824 91.973C93.0824 91.419 93.0824 90.886 93.0824 90.3744C93.1248 89.8204 93.1463 89.3938 93.1463 89.0955C93.1463 85.7704 92.549 83.2126 91.355 81.4222C90.1609 79.5893 88.1561 78.6726 85.3411 78.6726C84.4029 78.6726 83.4858 78.779 82.5901 78.9923C81.6944 79.1627 80.8842 79.4399 80.1589 79.8236C79.4767 80.2073 78.9219 80.6763 78.4955 81.2304C78.0692 81.7844 77.8558 82.4028 77.8558 83.0848C77.8558 83.5963 77.9837 83.916 78.2396 84.0439C78.4955 84.1718 78.7939 84.2782 79.1353 84.3636C79.4767 84.4491 79.8176 84.5979 80.1589 84.8113C80.5428 84.9816 80.7347 85.4082 80.7347 86.0901C80.7347 86.7296 80.5213 87.2626 80.095 87.6888C79.7111 88.1149 79.1568 88.3282 78.4316 88.3282C77.4504 88.3282 76.6827 87.9445 76.1284 87.1772C75.6165 86.3674 75.3606 85.4082 75.3606 84.2997C75.3606 83.1487 75.6165 82.1256 76.1284 81.2304C76.6827 80.2927 77.4079 79.5039 78.3036 78.8644C79.2418 78.1825 80.3509 77.671 81.6304 77.3298C82.91 76.9461 84.3175 76.7542 85.8529 76.7542C89.2222 76.7542 91.6963 77.7134 93.2743 79.6318C94.8952 81.5501 95.7054 84.6194 95.7054 88.8398C95.7054 89.3513 95.6839 90.0122 95.6415 90.822C95.6415 91.5894 95.62 92.3992 95.5775 93.2519C95.5775 94.1047 95.556 94.9784 95.5135 95.8737C95.5135 96.7264 95.5135 97.4938 95.5135 98.1757C95.5135 99.497 95.556 100.584 95.6415 101.437C95.7269 102.29 95.8759 102.971 96.0893 103.483C96.3452 103.952 96.6436 104.293 96.985 104.506C97.3688 104.677 97.8167 104.762 98.3285 104.762C98.9258 104.762 99.3946 104.677 99.736 104.506C100.077 104.293 100.333 104.016 100.504 103.675C100.717 103.334 100.845 102.95 100.888 102.524C100.973 102.055 101.037 101.586 101.08 101.117C101.122 100.606 101.335 100.35 101.719 100.35C102.061 100.35 102.274 100.478 102.359 100.733C102.487 100.989 102.551 101.351 102.551 101.82C102.551 103.653 102.146 104.932 101.335 105.657C100.525 106.339 99.5016 106.68 98.2645 106.68C97.1129 106.68 96.0678 106.403 95.1296 105.849C94.234 105.252 93.5942 104.272 93.2103 102.908C91.8453 104.144 90.3313 105.082 88.6679 105.721C87.047 106.361 85.2346 106.68 83.2299 106.68C80.2444 106.68 77.8558 105.998 76.0644 104.634C74.3155 103.27 73.4413 101.458 73.4413 99.1988C73.4413 98.0478 73.6972 96.9822 74.209 96.0015C74.7209 94.9784 75.4461 94.1047 76.3843 93.3798C77.3224 92.6549 78.453 92.1009 79.7751 91.7173C81.0971 91.2911 82.5686 91.0778 84.1895 91.0778C85.8104 91.0778 87.3669 91.3121 88.8599 91.7812C90.3528 92.2503 91.7603 92.9962 93.0824 94.0193V91.973ZM76.0644 99.1988C76.0644 100.904 76.7466 102.268 78.1117 103.291C79.5192 104.272 81.332 104.762 83.5497 104.762C84.8293 104.762 86.0449 104.592 87.1965 104.25C88.348 103.909 89.3502 103.462 90.2034 102.908C91.0991 102.311 91.8028 101.65 92.3146 100.925C92.8264 100.158 93.0824 99.3481 93.0824 98.4954C93.0824 97.728 92.8479 97.0032 92.3786 96.3213C91.9523 95.6394 91.355 95.0639 90.5872 94.5948C89.8195 94.0832 88.9023 93.6995 87.8362 93.4438C86.8126 93.1455 85.7035 92.9962 84.5094 92.9962C83.3153 92.9962 82.2062 93.1455 81.1826 93.4438C80.1589 93.742 79.2633 94.1686 78.4955 94.7227C77.7278 95.2342 77.1305 95.8737 76.7042 96.641C76.2778 97.4083 76.0644 98.2611 76.0644 99.1988ZM125.863 82.3814C125.479 83.0633 125.01 84.0654 124.456 85.3868C123.944 86.6656 123.39 88.1149 122.792 89.735C122.195 91.3121 121.598 92.9537 121.001 94.6587C120.404 96.3637 119.849 97.9623 119.338 99.4545C118.826 100.904 118.378 102.162 117.994 103.227C117.61 104.293 117.376 104.954 117.29 105.21C116.864 106.318 116.373 106.872 115.819 106.872C115.222 106.872 114.753 106.382 114.411 105.401C113.729 103.313 113.11 101.479 112.556 99.9022C112.044 98.325 111.575 96.8968 111.148 95.6179C110.765 94.2965 110.402 93.1026 110.061 92.037C109.719 90.9284 109.357 89.8204 108.973 88.7119C108.589 87.6033 108.184 86.4313 107.758 85.1949C107.331 83.9585 106.819 82.5732 106.222 81.0385C106.009 80.4416 105.71 79.973 105.327 79.6318C104.943 79.2906 104.516 79.0348 104.047 78.8644C103.578 78.6941 103.045 78.5872 102.448 78.5447C101.893 78.5022 101.317 78.4593 100.72 78.4168C99.5261 78.3743 98.9288 78.1186 98.9288 77.6495C98.9288 77.2233 99.4831 77.01 100.592 77.01C100.763 77.01 101.36 77.01 102.384 77.01C103.407 77.01 104.495 77.01 105.646 77.01C106.798 76.9676 107.864 76.9461 108.845 76.9461C109.826 76.9461 110.402 76.9461 110.573 76.9461C111.98 76.9461 112.684 77.2019 112.684 77.7134C112.684 78.0546 112.449 78.2889 111.98 78.4168C111.554 78.5022 111.021 78.5662 110.381 78.6086C109.187 78.6511 108.589 78.9284 108.589 79.4399C108.589 79.5678 108.589 79.7172 108.589 79.8875C108.632 80.0579 108.717 80.3776 108.845 80.8467C108.973 81.3158 109.187 81.9977 109.485 82.8929C109.783 83.7881 110.21 85.067 110.765 86.7296C111.319 88.3497 112.002 90.4169 112.812 92.9322C113.665 95.4046 114.71 98.4529 115.947 102.076C117.354 98.0693 118.506 94.7866 119.402 92.2288C120.34 89.671 121.065 87.6463 121.577 86.1541C122.089 84.6619 122.43 83.5963 122.6 82.9569C122.814 82.275 122.92 81.8059 122.92 81.5501C122.92 81.081 122.664 80.8042 122.153 80.7188C121.641 80.5909 120.66 80.527 119.21 80.527C118.314 80.527 117.866 80.2712 117.866 79.7596C117.866 79.376 118.271 79.1417 119.082 79.0563C119.935 78.9708 121.555 78.9284 123.944 78.9284C125.65 78.9284 127.036 78.9498 128.102 78.9923C129.169 78.9923 130 79.0348 130.598 79.1202C131.237 79.1627 131.664 79.2481 131.877 79.376C132.091 79.5039 132.197 79.6532 132.197 79.8236C132.197 80.2073 131.856 80.4416 131.173 80.527C130.534 80.5694 129.723 80.6334 128.742 80.7188C127.889 80.8042 127.271 80.9531 126.887 81.1664C126.503 81.3797 126.162 81.7844 125.863 82.3814ZM155.113 87.2411C155.838 87.2411 156.2 86.8575 156.2 86.0901C156.2 85.2374 156.03 84.3212 155.689 83.3405C155.347 82.3174 154.814 81.3797 154.089 80.527C153.364 79.6742 152.426 78.9708 151.274 78.4168C150.165 77.8198 148.822 77.5216 147.244 77.5216C145.623 77.5216 144.215 77.8198 143.021 78.4168C141.87 79.0138 140.867 79.8021 140.014 80.7828C139.204 81.7204 138.543 82.7865 138.031 83.98C137.562 85.131 137.221 86.3035 137.007 87.4969L155.113 87.2411ZM136.751 89.4153C136.709 89.8844 136.666 90.3529 136.623 90.822C136.623 91.2482 136.623 91.6533 136.623 92.037C136.623 93.5717 136.794 95.0848 137.135 96.577C137.519 98.0693 138.116 99.4121 138.927 100.606C139.78 101.799 140.867 102.78 142.189 103.547C143.554 104.272 145.196 104.634 147.116 104.634C148.865 104.634 150.4 104.336 151.722 103.739C153.044 103.142 154.132 102.354 154.985 101.373C155.881 100.392 156.542 99.2627 156.968 97.9838C157.438 96.7049 157.672 95.3836 157.672 94.0193C157.672 93.2519 158.034 92.8683 158.76 92.8683C159.485 92.8683 159.847 93.2519 159.847 94.0193C159.847 95.6818 159.527 97.2804 158.888 98.8151C158.248 100.35 157.352 101.714 156.2 102.908C155.091 104.059 153.769 104.975 152.234 105.657C150.698 106.339 149.035 106.68 147.244 106.68C144.983 106.68 143 106.297 141.294 105.529C139.63 104.762 138.244 103.696 137.135 102.332C136.026 100.968 135.173 99.3691 134.576 97.5362C134.022 95.6603 133.744 93.6571 133.744 91.5254C133.744 89.181 134.086 87.0278 134.768 85.067C135.493 83.0633 136.474 81.3583 137.711 79.9515C138.948 78.5447 140.398 77.4576 142.061 76.6903C143.725 75.8805 145.516 75.4754 147.436 75.4754C149.483 75.4754 151.232 75.9015 152.682 76.7542C154.132 77.564 155.305 78.5662 156.2 79.7596C157.139 80.9106 157.821 82.1256 158.248 83.4045C158.717 84.6409 158.952 85.685 158.952 86.5378C158.952 87.2197 158.76 87.8381 158.376 88.3922C158.034 88.9462 157.48 89.2449 156.712 89.2874C155.603 89.3298 154.239 89.3513 152.618 89.3513C151.04 89.3513 149.397 89.3513 147.692 89.3513C147.18 89.3513 146.433 89.3513 145.452 89.3513C144.471 89.3513 143.427 89.3728 142.317 89.4153C141.251 89.4153 140.206 89.4153 139.183 89.4153C138.159 89.4153 137.349 89.4153 136.751 89.4153ZM185.424 83.6603C185.424 84.1718 185.381 84.7048 185.296 85.2589C185.21 85.7704 185.04 86.2605 184.784 86.7296C184.57 87.1987 184.251 87.5824 183.824 87.8806C183.44 88.1788 182.929 88.3282 182.289 88.3282C181.563 88.3282 181.009 88.1364 180.625 87.7527C180.284 87.369 180.114 86.879 180.114 86.282C180.114 85.728 180.241 85.3013 180.497 85.0031C180.796 84.7049 181.095 84.4491 181.393 84.2358C181.734 84.0224 182.033 83.7881 182.289 83.5324C182.587 83.2766 182.737 82.8929 182.737 82.3814C182.737 81.6565 182.459 81.124 181.905 80.7828C181.351 80.3991 180.647 80.2073 179.794 80.2073C179.026 80.2073 178.194 80.3776 177.298 80.7188C176.403 81.06 175.571 81.6355 174.803 82.4453C174.036 83.2551 173.396 84.3212 172.884 85.6425C172.372 86.9214 172.116 88.52 172.116 90.4384V103.995H174.931C177.149 103.995 178.706 104.101 179.602 104.314C180.497 104.528 180.945 104.804 180.945 105.146C180.945 105.401 180.796 105.615 180.497 105.785C180.241 105.913 179.964 105.977 179.666 105.977C179.068 105.977 178.365 105.977 177.554 105.977C176.787 105.934 175.997 105.913 175.187 105.913C174.377 105.87 173.588 105.849 172.82 105.849C172.052 105.807 171.391 105.785 170.837 105.785C169.728 105.785 168.726 105.828 167.83 105.913C166.934 105.955 165.953 105.977 164.887 105.977C164.546 105.977 164.226 105.891 163.927 105.721C163.629 105.551 163.479 105.359 163.479 105.146C163.479 104.89 163.821 104.656 164.503 104.442C165.185 104.229 166.081 104.08 167.19 103.995C167.958 103.952 168.427 103.845 168.598 103.675C168.768 103.505 168.917 103.057 169.045 102.332C169.173 101.65 169.259 100.776 169.301 99.7103C169.387 98.6447 169.451 97.259 169.493 95.5539C169.579 93.806 169.621 91.6748 169.621 89.1595C169.664 86.6442 169.685 83.5963 169.685 80.0154C169.685 79.4184 169.365 79.1202 168.726 79.1202H162.392C161.965 79.1202 161.646 79.0138 161.432 78.8005C161.219 78.5872 161.112 78.4168 161.112 78.2889C161.112 78.1186 161.411 77.9692 162.008 77.8413C162.605 77.671 163.33 77.5431 164.183 77.4576C165.036 77.3298 165.953 77.2443 166.934 77.2019C167.958 77.1594 168.853 77.1379 169.621 77.1379C170.73 77.1379 171.477 77.2658 171.86 77.5216C172.244 77.7774 172.436 78.4593 172.436 79.5678V82.7011C173.46 81.2089 174.633 80.1008 175.955 79.376C177.277 78.6086 178.685 78.225 180.177 78.225C181.755 78.225 183.014 78.6511 183.952 79.5039C184.933 80.3566 185.424 81.7419 185.424 83.6603ZM205.677 35.0857H258.029V66.3113H205.677V35.0857ZM205.677 68.8091H258.029V100.035H205.677V68.8091ZM194.707 31.2917H203.178V41.4402H194.707V31.2917ZM198.456 31.2917H199.429C201.5 31.2917 203.178 32.9692 203.178 35.0385V37.6935C203.178 39.7627 201.5 41.4402 199.429 41.4402H198.456C196.385 41.4402 194.707 39.7627 194.707 37.6935V35.0385C194.707 32.9692 196.385 31.2917 198.456 31.2917ZM194.707 43.9382H203.178V54.0867H194.707V43.9382ZM198.456 43.9382H199.429C201.5 43.9382 203.178 45.6157 203.178 47.685V50.34C203.178 52.4092 201.5 54.0867 199.429 54.0867H198.456C196.385 54.0867 194.707 52.4092 194.707 50.34V47.685C194.707 45.6157 196.385 43.9382 198.456 43.9382ZM194.707 56.5843H203.178V66.7328H194.707V56.5843ZM198.456 56.5843H199.429C201.5 56.5843 203.178 58.2617 203.178 60.331V62.986C203.178 65.0553 201.5 66.7328 199.429 66.7328H198.456C196.385 66.7328 194.707 65.0553 194.707 62.986V60.331C194.707 58.2617 196.385 56.5843 198.456 56.5843ZM194.707 69.2308H203.178V79.3793H194.707V69.2308ZM198.456 69.2308H199.429C201.5 69.2308 203.178 70.9083 203.178 72.9775V75.6325C203.178 77.7018 201.5 79.3793 199.429 79.3793H198.456C196.385 79.3793 194.707 77.7018 194.707 75.6325V72.9775C194.707 70.9083 196.385 69.2308 198.456 69.2308ZM194.707 81.8773H203.178V92.0258H194.707V81.8773ZM198.456 81.8773H199.429C201.5 81.8773 203.178 83.5548 203.178 85.6241V88.279C203.178 90.3483 201.5 92.0258 199.429 92.0258H198.456C196.385 92.0258 194.707 90.3483 194.707 88.279V85.6241C194.707 83.5548 196.385 81.8773 198.456 81.8773ZM194.707 94.5233H203.178V104.672H194.707V94.5233ZM198.456 94.5233H199.429C201.5 94.5233 203.178 96.2008 203.178 98.2701V100.925C203.178 102.994 201.5 104.672 199.429 104.672H198.456C196.385 104.672 194.707 102.994 194.707 100.925V98.2701C194.707 96.2008 196.385 94.5233 198.456 94.5233ZM267.903 31.2917H260.529V41.4402H267.903V31.2917ZM264.216 31.2917C262.179 31.2917 260.529 32.9416 260.529 34.9769V37.755C260.529 39.7903 262.179 41.4402 264.216 41.4402C266.252 41.4402 267.903 39.7903 267.903 37.755V34.9769C267.903 32.9416 266.252 31.2917 264.216 31.2917ZM267.903 43.9382H260.529V54.0867H267.903V43.9382ZM264.216 43.9382C262.179 43.9382 260.529 45.5882 260.529 47.6234V50.4015C260.529 52.4368 262.179 54.0867 264.216 54.0867C266.252 54.0867 267.903 52.4368 267.903 50.4015V47.6234C267.903 45.5882 266.252 43.9382 264.216 43.9382ZM267.903 56.5843H260.529V66.7327H267.903V56.5843ZM264.216 56.5843C262.179 56.5843 260.529 58.2342 260.529 60.2695V63.0475C260.529 65.0828 262.179 66.7327 264.216 66.7327C266.252 66.7327 267.903 65.0828 267.903 63.0475V60.2695C267.903 58.2342 266.252 56.5843 264.216 56.5843ZM267.903 69.2308H260.529V79.3793H267.903V69.2308ZM264.216 69.2308C262.179 69.2308 260.529 70.8807 260.529 72.916V75.6941C260.529 77.7293 262.179 79.3793 264.216 79.3793C266.252 79.3793 267.903 77.7293 267.903 75.6941V72.916C267.903 70.8807 266.252 69.2308 264.216 69.2308ZM267.903 81.8773H260.529V92.0258H267.903V81.8773ZM264.216 81.8773C262.179 81.8773 260.529 83.5272 260.529 85.5625V88.3406C260.529 90.3759 262.179 92.0258 264.216 92.0258C266.252 92.0258 267.903 90.3759 267.903 88.3406V85.5625C267.903 83.5272 266.252 81.8773 264.216 81.8773ZM267.903 94.5233H260.529V104.672H266.653C267.344 104.672 267.903 104.113 267.903 103.423V94.5233ZM264.216 94.5233C262.179 94.5233 260.529 96.1733 260.529 98.2085V100.987C260.529 103.022 262.179 104.672 264.216 104.672C266.252 104.672 267.903 103.022 267.903 100.987V98.2085C267.903 96.1733 266.252 94.5233 264.216 94.5233Z" stroke="#FFE8F8"/>
<defs>
<radialGradient id="paint0_diamond_31_2204" cx="0" cy="0" r="1" gradientUnits="userSpaceOnUse" gradientTransform="translate(135 54) rotate(90) scale(53 134)">
<stop stop-color="#FFE8F8" stop-opacity="0.9"/>
<stop offset="1" stop-color="#CE66AE"/>
</radialGradient>
<radialGradient id="paint1_diamond_31_2204" cx="0" cy="0" r="1" gradientUnits="userSpaceOnUse" gradientTransform="translate(135 54) rotate(90) scale(53 134)">
<stop stop-color="#FFE8F8" stop-opacity="0.9"/>
<stop offset="1" stop-color="#CE66AE"/>
</radialGradient>
<radialGradient id="paint2_diamond_31_2204" cx="0" cy="0" r="1" gradientUnits="userSpaceOnUse" gradientTransform="translate(135 54) rotate(90) scale(53 134)">
<stop stop-color="#FFE8F8" stop-opacity="0.9"/>
<stop offset="1" stop-color="#CE66AE"/>
</radialGradient>
<radialGradient id="paint3_diamond_31_2204" cx="0" cy="0" r="1" gradientUnits="userSpaceOnUse" gradientTransform="translate(135 54) rotate(90) scale(53 134)">
<stop stop-color="#FFE8F8" stop-opacity="0.9"/>
<stop offset="1" stop-color="#CE66AE"/>
</radialGradient>
<radialGradient id="paint4_diamond_31_2204" cx="0" cy="0" r="1" gradientUnits="userSpaceOnUse" gradientTransform="translate(135 54) rotate(90) scale(53 134)">
<stop stop-color="#FFE8F8" stop-opacity="0.9"/>
<stop offset="1" stop-color="#CE66AE"/>
</radialGradient>
<radialGradient id="paint5_diamond_31_2204" cx="0" cy="0" r="1" gradientUnits="userSpaceOnUse" gradientTransform="translate(135 54) rotate(90) scale(53 134)">
<stop stop-color="#FFE8F8" stop-opacity="0.9"/>
<stop offset="1" stop-color="#CE66AE"/>
</radialGradient>
<radialGradient id="paint6_diamond_31_2204" cx="0" cy="0" r="1" gradientUnits="userSpaceOnUse" gradientTransform="translate(135 54) rotate(90) scale(53 134)">
<stop stop-color="#FFE8F8" stop-opacity="0.9"/>
<stop offset="1" stop-color="#CE66AE"/>
</radialGradient>
<radialGradient id="paint7_diamond_31_2204" cx="0" cy="0" r="1" gradientUnits="userSpaceOnUse" gradientTransform="translate(135 54) rotate(90) scale(53 134)">
<stop stop-color="#FFE8F8" stop-opacity="0.9"/>
<stop offset="1" stop-color="#CE66AE"/>
</radialGradient>
<radialGradient id="paint8_diamond_31_2204" cx="0" cy="0" r="1" gradientUnits="userSpaceOnUse" gradientTransform="translate(135 54) rotate(90) scale(53 134)">
<stop stop-color="#FFE8F8" stop-opacity="0.9"/>
<stop offset="1" stop-color="#CE66AE"/>
</radialGradient>
<radialGradient id="paint9_diamond_31_2204" cx="0" cy="0" r="1" gradientUnits="userSpaceOnUse" gradientTransform="translate(135 54) rotate(90) scale(53 134)">
<stop stop-color="#FFE8F8" stop-opacity="0.9"/>
<stop offset="1" stop-color="#CE66AE"/>
</radialGradient>
<radialGradient id="paint10_diamond_31_2204" cx="0" cy="0" r="1" gradientUnits="userSpaceOnUse" gradientTransform="translate(135 54) rotate(90) scale(53 134)">
<stop stop-color="#FFE8F8" stop-opacity="0.9"/>
<stop offset="1" stop-color="#CE66AE"/>
</radialGradient>
<radialGradient id="paint11_diamond_31_2204" cx="0" cy="0" r="1" gradientUnits="userSpaceOnUse" gradientTransform="translate(135 54) rotate(90) scale(53 134)">
<stop stop-color="#FFE8F8" stop-opacity="0.9"/>
<stop offset="1" stop-color="#CE66AE"/>
</radialGradient>
<radialGradient id="paint12_diamond_31_2204" cx="0" cy="0" r="1" gradientUnits="userSpaceOnUse" gradientTransform="translate(135 54) rotate(90) scale(53 134)">
<stop stop-color="#FFE8F8" stop-opacity="0.9"/>
<stop offset="1" stop-color="#CE66AE"/>
</radialGradient>
<radialGradient id="paint13_diamond_31_2204" cx="0" cy="0" r="1" gradientUnits="userSpaceOnUse" gradientTransform="translate(135 54) rotate(90) scale(53 134)">
<stop stop-color="#FFE8F8" stop-opacity="0.9"/>
<stop offset="1" stop-color="#CE66AE"/>
</radialGradient>
<radialGradient id="paint14_diamond_31_2204" cx="0" cy="0" r="1" gradientUnits="userSpaceOnUse" gradientTransform="translate(135 54) rotate(90) scale(53 134)">
<stop stop-color="#FFE8F8" stop-opacity="0.9"/>
<stop offset="1" stop-color="#CE66AE"/>
</radialGradient>
<radialGradient id="paint15_diamond_31_2204" cx="0" cy="0" r="1" gradientUnits="userSpaceOnUse" gradientTransform="translate(135 54) rotate(90) scale(53 134)">
<stop stop-color="#FFE8F8" stop-opacity="0.9"/>
<stop offset="1" stop-color="#CE66AE"/>
</radialGradient>
<radialGradient id="paint16_diamond_31_2204" cx="0" cy="0" r="1" gradientUnits="userSpaceOnUse" gradientTransform="translate(135 54) rotate(90) scale(53 134)">
<stop stop-color="#FFE8F8" stop-opacity="0.9"/>
<stop offset="1" stop-color="#CE66AE"/>
</radialGradient>
<radialGradient id="paint17_diamond_31_2204" cx="0" cy="0" r="1" gradientUnits="userSpaceOnUse" gradientTransform="translate(135 54) rotate(90) scale(53 134)">
<stop stop-color="#FFE8F8" stop-opacity="0.9"/>
<stop offset="1" stop-color="#CE66AE"/>
</radialGradient>
<radialGradient id="paint18_diamond_31_2204" cx="0" cy="0" r="1" gradientUnits="userSpaceOnUse" gradientTransform="translate(135 54) rotate(90) scale(53 134)">
<stop stop-color="#FFE8F8" stop-opacity="0.9"/>
<stop offset="1" stop-color="#CE66AE"/>
</radialGradient>
<radialGradient id="paint19_diamond_31_2204" cx="0" cy="0" r="1" gradientUnits="userSpaceOnUse" gradientTransform="translate(135 54) rotate(90) scale(53 134)">
<stop stop-color="#FFE8F8" stop-opacity="0.9"/>
<stop offset="1" stop-color="#CE66AE"/>
</radialGradient>
<radialGradient id="paint20_diamond_31_2204" cx="0" cy="0" r="1" gradientUnits="userSpaceOnUse" gradientTransform="translate(135 54) rotate(90) scale(53 134)">
<stop stop-color="#FFE8F8" stop-opacity="0.9"/>
<stop offset="1" stop-color="#CE66AE"/>
</radialGradient>
<radialGradient id="paint21_diamond_31_2204" cx="0" cy="0" r="1" gradientUnits="userSpaceOnUse" gradientTransform="translate(135 54) rotate(90) scale(53 134)">
<stop stop-color="#FFE8F8" stop-opacity="0.9"/>
<stop offset="1" stop-color="#CE66AE"/>
</radialGradient>
<radialGradient id="paint22_diamond_31_2204" cx="0" cy="0" r="1" gradientUnits="userSpaceOnUse" gradientTransform="translate(135 54) rotate(90) scale(53 134)">
<stop stop-color="#FFE8F8" stop-opacity="0.9"/>
<stop offset="1" stop-color="#CE66AE"/>
</radialGradient>
<radialGradient id="paint23_diamond_31_2204" cx="0" cy="0" r="1" gradientUnits="userSpaceOnUse" gradientTransform="translate(135 54) rotate(90) scale(53 134)">
<stop stop-color="#FFE8F8" stop-opacity="0.9"/>
<stop offset="1" stop-color="#CE66AE"/>
</radialGradient>
<radialGradient id="paint24_diamond_31_2204" cx="0" cy="0" r="1" gradientUnits="userSpaceOnUse" gradientTransform="translate(135 54) rotate(90) scale(53 134)">
<stop stop-color="#FFE8F8" stop-opacity="0.9"/>
<stop offset="1" stop-color="#CE66AE"/>
</radialGradient>
<radialGradient id="paint25_diamond_31_2204" cx="0" cy="0" r="1" gradientUnits="userSpaceOnUse" gradientTransform="translate(135 54) rotate(90) scale(53 134)">
<stop stop-color="#FFE8F8" stop-opacity="0.9"/>
<stop offset="1" stop-color="#CE66AE"/>
</radialGradient>
<radialGradient id="paint26_diamond_31_2204" cx="0" cy="0" r="1" gradientUnits="userSpaceOnUse" gradientTransform="translate(135 54) rotate(90) scale(53 134)">
<stop stop-color="#FFE8F8" stop-opacity="0.9"/>
<stop offset="1" stop-color="#CE66AE"/>
</radialGradient>
<radialGradient id="paint27_diamond_31_2204" cx="0" cy="0" r="1" gradientUnits="userSpaceOnUse" gradientTransform="translate(135 54) rotate(90) scale(53 134)">
<stop stop-color="#FFE8F8" stop-opacity="0.9"/>
<stop offset="1" stop-color="#CE66AE"/>
</radialGradient>
<radialGradient id="paint28_diamond_31_2204" cx="0" cy="0" r="1" gradientUnits="userSpaceOnUse" gradientTransform="translate(135 54) rotate(90) scale(53 134)">
<stop stop-color="#FFE8F8" stop-opacity="0.9"/>
<stop offset="1" stop-color="#CE66AE"/>
</radialGradient>
</defs>
</svg>
