<svg width="20" height="12" viewBox="0 0 20 12" fill="none" xmlns="http://www.w3.org/2000/svg">
<path d="M18 0H2C0.895313 0 0 0.895313 0 2V10C0 11.1047 0.895313 12 2 12H6.03531C7.21594 12 8.28656 11.3075 8.77094 10.2309L9.02312 9.67062C9.20813 9.25969 9.58625 9 10 9C10.4137 9 10.7919 9.25969 10.9769 9.67062L11.2291 10.2309C11.7134 11.3075 12.7844 12 13.9647 12H18C19.1047 12 20 11.1047 20 10V2C20 0.895313 19.1047 0 18 0ZM18.5 10C18.5 10.2756 18.2756 10.5 18 10.5H13.9647C13.3756 10.5 12.8384 10.1528 12.5969 9.61563L12.3447 9.05531C11.9197 8.11062 10.9994 7.5 10 7.5C9.00062 7.5 8.08031 8.11062 7.65531 9.05531L7.40312 9.61563C7.16125 10.1528 6.62438 10.5 6.03531 10.5H2C1.72438 10.5 1.5 10.2756 1.5 10V2C1.5 1.72438 1.72438 1.5 2 1.5H18C18.2756 1.5 18.5 1.72438 18.5 2V10ZM5.5 3.5C4.39531 3.5 3.5 4.39531 3.5 5.5C3.5 6.60469 4.39531 7.5 5.5 7.5C6.60469 7.5 7.5 6.60469 7.5 5.5C7.5 4.39531 6.60469 3.5 5.5 3.5ZM14.5 3.5C13.3953 3.5 12.5 4.39531 12.5 5.5C12.5 6.60469 13.3953 7.5 14.5 7.5C15.6047 7.5 16.5 6.60469 16.5 5.5C16.5 4.39531 15.6047 3.5 14.5 3.5Z" fill="black"/>
</svg>
