<svg width="27" height="43" viewBox="0 0 27 43" fill="none" xmlns="http://www.w3.org/2000/svg">
<path d="M0.329484 15.2577L2.16942 17.0976C2.61502 17.5432 3.3398 17.5359 3.7763 17.0814L11.0436 9.51406V41.8372C11.0436 42.4585 11.5473 42.9622 12.1686 42.9622H14.7936C15.4149 42.9622 15.9186 42.4585 15.9186 41.8372V9.51406L23.1859 17.0813C23.6224 17.5359 24.3472 17.5432 24.7928 17.0975L26.6327 15.2576C27.072 14.8183 27.072 14.1059 26.6327 13.6665L14.2766 1.31056C13.8373 0.871251 13.125 0.871251 12.6855 1.31056L0.329484 13.6667C-0.109828 14.106 -0.109828 14.8183 0.329484 15.2577Z" fill="url(#paint0_angular_70_969)"/>
<defs>
<radialGradient id="paint0_angular_70_969" cx="0" cy="0" r="1" gradientUnits="userSpaceOnUse" gradientTransform="translate(8.75768 21.9407) rotate(120.664) scale(12.6894 12.3406)">
<stop offset="0.112001" stop-color="#A2EDFD" stop-opacity="0.9"/>
<stop offset="0.528481" stop-color="#CE66AE"/>
</radialGradient>
</defs>
</svg>
