<svg width="40" height="34" viewBox="0 0 40 34" fill="none" xmlns="http://www.w3.org/2000/svg">
<path d="M38.9286 5.07141H1.07143C0.479732 5.07141 0 4.59168 0 3.99998V1.14284C0 0.551143 0.479732 0.0714111 1.07143 0.0714111H38.9286C39.5203 0.0714111 40 0.551143 40 1.14284V3.99998C40 4.59168 39.5203 5.07141 38.9286 5.07141ZM38.9286 19.3571H1.07143C0.479732 19.3571 0 18.8774 0 18.2857V15.4286C0 14.8369 0.479732 14.3571 1.07143 14.3571H38.9286C39.5203 14.3571 40 14.8369 40 15.4286V18.2857C40 18.8774 39.5203 19.3571 38.9286 19.3571ZM38.9286 33.6428H1.07143C0.479732 33.6428 0 33.1631 0 32.5714V29.7143C0 29.1226 0.479732 28.6428 1.07143 28.6428H38.9286C39.5203 28.6428 40 29.1226 40 29.7143V32.5714C40 33.1631 39.5203 33.6428 38.9286 33.6428Z" fill="url(#paint0_linear_28_1905)"/>
<defs>
<linearGradient id="paint0_linear_28_1905" x1="0" y1="16.8571" x2="40" y2="16.8571" gradientUnits="userSpaceOnUse">
<stop stop-color="#A2EDFD" stop-opacity="0.9"/>
<stop offset="1" stop-color="#FFE8F8"/>
</linearGradient>
</defs>
</svg>
