<svg width="30" height="31" viewBox="0 0 30 31" fill="none" xmlns="http://www.w3.org/2000/svg">
<path d="M19.4625 15.707L29.5612 5.60827C30.1453 5.02421 30.1453 4.0764 29.5612 3.4914L27.2147 1.14483C26.6306 0.560771 25.6828 0.560771 25.0978 1.14483L15 11.2445L4.90122 1.14577C4.31716 0.561709 3.36934 0.561709 2.78434 1.14577L0.438718 3.4914C-0.145344 4.07546 -0.145344 5.02327 0.438718 5.60827L10.5375 15.707L0.438718 25.8058C-0.145344 26.3898 -0.145344 27.3376 0.438718 27.9226L2.78528 30.2692C3.36934 30.8533 4.31716 30.8533 4.90216 30.2692L15 20.1695L25.0987 30.2683C25.6828 30.8523 26.6306 30.8523 27.2156 30.2683L29.5622 27.9217C30.1462 27.3376 30.1462 26.3898 29.5622 25.8048L19.4625 15.707Z" fill="url(#paint0_linear_28_1907)"/>
<defs>
<linearGradient id="paint0_linear_28_1907" x1="0.000671387" y1="15.707" x2="30.0002" y2="15.707" gradientUnits="userSpaceOnUse">
<stop stop-color="#A2EDFD" stop-opacity="0.9"/>
<stop offset="1" stop-color="#FFE8F8"/>
</linearGradient>
</defs>
</svg>
