<svg width="25" height="6" viewBox="0 0 25 6" fill="none" xmlns="http://www.w3.org/2000/svg">
<path d="M15.1957 3.04583C15.1957 4.53645 13.9864 5.74583 12.4957 5.74583C11.0051 5.74583 9.79573 4.53645 9.79573 3.04583C9.79573 1.5552 11.0051 0.345825 12.4957 0.345825C13.9864 0.345825 15.1957 1.5552 15.1957 3.04583ZM21.9457 0.345825C20.4551 0.345825 19.2457 1.5552 19.2457 3.04583C19.2457 4.53645 20.4551 5.74583 21.9457 5.74583C23.4364 5.74583 24.6457 4.53645 24.6457 3.04583C24.6457 1.5552 23.4364 0.345825 21.9457 0.345825ZM3.04573 0.345825C1.55511 0.345825 0.345734 1.5552 0.345734 3.04583C0.345734 4.53645 1.55511 5.74583 3.04573 5.74583C4.53636 5.74583 5.74573 4.53645 5.74573 3.04583C5.74573 1.5552 4.53636 0.345825 3.04573 0.345825Z" fill="#0F1243"/>
</svg>
