<svg width="174" height="139" viewBox="0 0 174 139" fill="none" xmlns="http://www.w3.org/2000/svg">
<path d="M142.598 18.9496C142.552 18.8618 142.474 18.7942 142.381 18.7595C132.024 14.0135 121.094 10.6279 109.865 8.68745C109.764 8.66899 109.66 8.68264 109.567 8.72648C109.474 8.77033 109.398 8.84214 109.348 8.93179C107.859 11.6311 106.507 14.4038 105.297 17.2392C93.1866 15.4036 80.8679 15.4036 68.7572 17.2392C67.5428 14.3968 66.1723 11.6234 64.6519 8.93179C64.5994 8.84481 64.5224 8.77524 64.4305 8.73177C64.3386 8.68831 64.236 8.67289 64.1353 8.68745C52.8867 10.6192 41.9379 14.005 31.5647 18.7595C31.4737 18.798 31.3975 18.8646 31.3472 18.9496C10.6303 49.8716 4.94814 80.0064 7.72126 109.788C7.72911 109.863 7.75251 109.936 7.78995 110.001C7.8274 110.067 7.87808 110.123 7.93876 110.168C20.0063 119.081 33.5019 125.884 47.85 130.285C47.9531 130.317 48.0637 130.316 48.1661 130.282C48.2685 130.248 48.3576 130.183 48.421 130.095C51.4995 125.91 54.2275 121.479 56.5772 116.847C56.6085 116.783 56.6263 116.714 56.6294 116.643C56.6325 116.572 56.621 116.501 56.5955 116.435C56.57 116.368 56.531 116.308 56.4811 116.258C56.4312 116.207 56.3713 116.167 56.3053 116.141C51.9948 114.492 47.822 112.504 43.8263 110.195C43.7557 110.152 43.6965 110.093 43.6537 110.022C43.6109 109.951 43.5858 109.871 43.5805 109.789C43.5752 109.706 43.5898 109.624 43.6231 109.548C43.6564 109.472 43.7074 109.406 43.7719 109.354C44.6147 108.729 45.4575 108.078 46.246 107.426C46.3155 107.365 46.401 107.325 46.4924 107.311C46.5839 107.297 46.6775 107.308 46.7625 107.345C72.9169 119.263 101.246 119.263 127.102 107.345C127.184 107.305 127.276 107.288 127.368 107.298C127.459 107.308 127.546 107.343 127.618 107.399C128.407 108.051 129.249 108.729 130.092 109.354C130.157 109.406 130.208 109.472 130.241 109.548C130.274 109.624 130.289 109.706 130.284 109.789C130.278 109.871 130.253 109.951 130.21 110.022C130.168 110.093 130.108 110.152 130.038 110.195C126.052 112.515 121.878 114.495 117.559 116.114C117.493 116.14 117.433 116.18 117.383 116.23C117.333 116.281 117.294 116.341 117.269 116.408C117.243 116.474 117.232 116.545 117.235 116.616C117.238 116.686 117.256 116.756 117.287 116.82C119.678 121.429 122.404 125.857 125.443 130.068C125.506 130.155 125.596 130.221 125.698 130.255C125.8 130.289 125.911 130.29 126.014 130.258C140.404 125.876 153.938 119.073 166.034 110.141C166.096 110.098 166.148 110.041 166.185 109.975C166.223 109.91 166.245 109.836 166.252 109.761C169.568 75.364 160.651 45.4736 142.598 18.9496ZM60.4922 91.6531C52.6078 91.6531 46.1372 84.4316 46.1372 75.5812C46.1372 66.7308 52.4991 59.4822 60.4922 59.4822C68.5669 59.4822 74.9831 66.758 74.8472 75.554C74.8472 84.4316 68.4853 91.6531 60.4922 91.6531ZM113.617 91.6531C105.732 91.6531 99.2616 84.4316 99.2616 75.5812C99.2616 66.7308 105.596 59.4822 113.617 59.4822C121.691 59.4822 128.108 66.758 127.972 75.554C127.972 84.4316 121.664 91.6531 113.617 91.6531Z" fill="url(#paint0_angular_27_733)"/>
<defs>
<radialGradient id="paint0_angular_27_733" cx="0" cy="0" r="1" gradientUnits="userSpaceOnUse" gradientTransform="translate(58.993 69.4043) rotate(140.507) scale(49.7241 54.1002)">
<stop offset="0.112001" stop-color="#A2EDFD" stop-opacity="0.9"/>
<stop offset="0.528481" stop-color="#CE66AE"/>
</radialGradient>
</defs>
</svg>
