<svg width="104" height="139" viewBox="0 0 104 139" fill="none" xmlns="http://www.w3.org/2000/svg">
<path d="M3.79169 26.0082C3.79169 11.6467 15.4104 0 29.7375 0H74.2625C88.5896 0 100.208 11.6467 100.208 26.0082C100.208 35.1029 95.55 43.1117 88.4813 47.7541C95.55 52.3965 100.208 60.4053 100.208 69.5C100.208 83.8615 88.5896 95.5082 74.2625 95.5082H73.6938C66.9771 95.5082 60.8563 92.9562 56.2521 88.7482V112.72C56.2521 127.272 44.3354 139 29.8729 139C15.5729 139 3.79169 127.38 3.79169 112.992C3.79169 103.897 8.45002 95.8883 15.4917 91.2459C8.45002 86.6035 3.79169 78.5947 3.79169 69.5C3.79169 60.4053 8.45002 52.3965 15.4917 47.7541C8.45002 43.1117 3.79169 35.1029 3.79169 26.0082ZM47.7479 52.0164H29.7375C20.0959 52.0164 12.2959 59.8352 12.2959 69.5C12.2959 79.1105 20.0417 86.9293 29.6292 86.9836C29.6563 86.9836 29.7104 86.9836 29.7375 86.9836H47.7479V52.0164ZM56.2521 69.5C56.2521 79.1648 64.0521 86.9836 73.6938 86.9836H74.2625C83.8771 86.9836 91.7042 79.1648 91.7042 69.5C91.7042 59.8352 83.8771 52.0164 74.2625 52.0164H73.6938C64.0521 52.0164 56.2521 59.8352 56.2521 69.5ZM29.7375 95.5082C29.7104 95.5082 29.6563 95.5082 29.6292 95.5082C20.0417 95.5625 12.2959 103.381 12.2959 112.992C12.2959 122.629 20.2042 130.475 29.8729 130.475C39.7042 130.475 47.7479 122.494 47.7479 112.72V95.5082H29.7375ZM29.7375 8.52461C20.0959 8.52461 12.2959 16.3434 12.2959 26.0082C12.2959 35.673 20.0959 43.4918 29.7375 43.4918H47.7479V8.52461H29.7375ZM56.2521 43.4918H74.2625C83.8771 43.4918 91.7042 35.673 91.7042 26.0082C91.7042 16.3434 83.8771 8.52461 74.2625 8.52461H56.2521V43.4918Z" fill="url(#paint0_angular_27_731)"/>
<defs>
<radialGradient id="paint0_angular_27_731" cx="0" cy="0" r="1" gradientUnits="userSpaceOnUse" gradientTransform="translate(35.1091 69.3977) rotate(122.634) scale(42.9147 43.2044)">
<stop offset="0.112001" stop-color="#A2EDFD" stop-opacity="0.9"/>
<stop offset="0.528481" stop-color="#CE66AE"/>
</radialGradient>
</defs>
</svg>
