<svg width="135" height="139" viewBox="0 0 135 139" fill="none" xmlns="http://www.w3.org/2000/svg">
<path d="M45.1542 107.888C45.1542 108.431 44.5282 108.865 43.7389 108.865C42.8407 108.947 42.2147 108.512 42.2147 107.888C42.2147 107.345 42.8407 106.911 43.63 106.911C44.4466 106.829 45.1542 107.263 45.1542 107.888ZM36.6895 106.666C36.499 107.209 37.0434 107.834 37.8599 107.996C38.5675 108.268 39.3841 107.996 39.5474 107.454C39.7107 106.911 39.1936 106.286 38.377 106.042C37.6694 105.852 36.88 106.123 36.6895 106.666ZM48.7198 106.205C47.9304 106.395 47.3861 106.911 47.4677 107.535C47.5494 108.078 48.2571 108.431 49.0736 108.241C49.8629 108.051 50.4073 107.535 50.3256 106.992C50.2439 106.476 49.5091 106.123 48.7198 106.205ZM66.629 2.17188C28.878 2.17188 0 30.7592 0 68.4141C0 98.5217 18.998 124.286 46.1341 133.353C49.6179 133.978 50.8427 131.833 50.8427 130.068C50.8427 128.385 50.7611 119.1 50.7611 113.399C50.7611 113.399 31.7087 117.471 27.7077 105.309C27.7077 105.309 24.6048 97.4086 20.1411 95.3725C20.1411 95.3725 13.9083 91.1102 20.5766 91.1916C20.5766 91.1916 27.3538 91.7346 31.0827 98.1959C37.0433 108.675 47.0323 105.662 50.9244 103.87C51.5504 99.5262 53.3196 96.5127 55.2792 94.7209C40.0645 93.0377 24.7137 90.8387 24.7137 64.7219C24.7137 57.2561 26.7823 53.5096 31.1371 48.7314C30.4294 46.9668 28.1159 39.691 31.8448 30.2977C37.5333 28.533 50.625 37.6277 50.625 37.6277C56.0686 36.1074 61.9204 35.3201 67.7177 35.3201C73.5151 35.3201 79.3669 36.1074 84.8105 37.6277C84.8105 37.6277 97.9022 28.5059 103.591 30.2977C107.32 39.7182 105.006 46.9668 104.298 48.7314C108.653 53.5367 111.321 57.2832 111.321 64.7219C111.321 90.9201 95.2893 93.0105 80.0746 94.7209C82.5786 96.8656 84.7016 100.938 84.7016 107.318C84.7016 116.467 84.62 127.788 84.62 130.014C84.62 131.779 85.872 133.923 89.3286 133.299C116.546 124.286 135 98.5217 135 68.4141C135 30.7592 104.38 2.17188 66.629 2.17188ZM26.4556 95.8068C26.1018 96.0783 26.1835 96.7027 26.6462 97.2186C27.0817 97.6529 27.7077 97.843 28.0615 97.49C28.4153 97.2186 28.3337 96.5941 27.871 96.0783C27.4355 95.6439 26.8095 95.4539 26.4556 95.8068ZM23.5161 93.6078C23.3256 93.9607 23.5978 94.3951 24.1421 94.6666C24.5776 94.9381 25.122 94.8566 25.3125 94.4766C25.503 94.1236 25.2308 93.6893 24.6865 93.4178C24.1421 93.2549 23.7067 93.3363 23.5161 93.6078ZM32.3347 103.273C31.8992 103.626 32.0625 104.44 32.6885 104.956C33.3145 105.58 34.1038 105.662 34.4577 105.227C34.8115 104.874 34.6482 104.06 34.1038 103.544C33.505 102.92 32.6885 102.838 32.3347 103.273ZM29.2319 99.2818C28.7964 99.5533 28.7964 100.259 29.2319 100.884C29.6673 101.508 30.4022 101.779 30.7561 101.508C31.1915 101.155 31.1915 100.449 30.7561 99.8248C30.375 99.2004 29.6673 98.9289 29.2319 99.2818Z" fill="url(#paint0_angular_27_739)"/>
<defs>
<radialGradient id="paint0_angular_27_739" cx="0" cy="0" r="1" gradientUnits="userSpaceOnUse" gradientTransform="translate(43.8497 67.7211) rotate(133.508) scale(47.0663 52.0989)">
<stop offset="0.112001" stop-color="#A2EDFD" stop-opacity="0.9"/>
<stop offset="0.528481" stop-color="#CE66AE"/>
</radialGradient>
</defs>
</svg>
