<svg width="122" height="139" viewBox="0 0 122 139" fill="none" xmlns="http://www.w3.org/2000/svg">
<g clip-path="url(#clip0_27_741)">
<path d="M61.0272 38.2793C43.7076 38.2793 29.7375 52.2065 29.7375 69.4729C29.7375 86.7393 43.7076 100.666 61.0272 100.666C78.3469 100.666 92.3169 86.7393 92.3169 69.4729C92.3169 52.2065 78.3469 38.2793 61.0272 38.2793ZM61.0272 89.7528C49.8348 89.7528 40.6848 80.658 40.6848 69.4729C40.6848 58.2877 49.8076 49.193 61.0272 49.193C72.2469 49.193 81.3696 58.2877 81.3696 69.4729C81.3696 80.658 72.2196 89.7528 61.0272 89.7528ZM100.895 37.0033C100.895 41.0485 97.6272 44.2791 93.5969 44.2791C89.5393 44.2791 86.2986 41.0213 86.2986 37.0033C86.2986 32.9854 89.5665 29.7276 93.5969 29.7276C97.6272 29.7276 100.895 32.9854 100.895 37.0033ZM121.619 44.3877C121.156 34.6414 118.923 26.0082 111.761 18.8953C104.626 11.7824 95.9661 9.55627 86.1897 9.0676C76.1138 8.49749 45.9134 8.49749 35.8375 9.0676C26.0884 9.52913 17.4285 11.7553 10.2665 18.8682C3.10444 25.9811 0.898638 34.6143 0.408459 44.3606C-0.163416 54.4055 -0.163416 84.5131 0.408459 94.558C0.871406 104.304 3.10444 112.938 10.2665 120.05C17.4285 127.163 26.0611 129.389 35.8375 129.878C45.9134 130.448 76.1138 130.448 86.1897 129.878C95.9661 129.417 104.626 127.19 111.761 120.05C118.896 112.938 121.129 104.304 121.619 94.558C122.191 84.5131 122.191 54.4326 121.619 44.3877ZM108.602 105.336C106.478 110.657 102.366 114.756 97.0009 116.901C88.9674 120.078 69.9049 119.345 61.0272 119.345C52.1495 119.345 33.0598 120.05 25.0535 116.901C19.716 114.784 15.604 110.684 13.4527 105.336C10.2665 97.3272 11.0018 78.3233 11.0018 69.4729C11.0018 60.6225 10.2937 41.5914 13.4527 33.6098C15.5768 28.2887 19.6888 24.1893 25.0535 22.0446C33.087 18.8682 52.1495 19.6012 61.0272 19.6012C69.9049 19.6012 88.9946 18.8953 97.0009 22.0446C102.338 24.1621 106.45 28.2615 108.602 33.6098C111.788 41.6186 111.053 60.6225 111.053 69.4729C111.053 78.3233 111.788 97.3543 108.602 105.336Z" fill="url(#paint0_angular_27_741)"/>
</g>
<defs>
<radialGradient id="paint0_angular_27_741" cx="0" cy="0" r="1" gradientUnits="userSpaceOnUse" gradientTransform="translate(39.6288 69.3833) rotate(132.807) scale(43.1174 47.6524)">
<stop offset="0.112001" stop-color="#A2EDFD" stop-opacity="0.9"/>
<stop offset="0.528481" stop-color="#CE66AE"/>
</radialGradient>
<clipPath id="clip0_27_741">
<rect width="122" height="139" fill="white"/>
</clipPath>
</defs>
</svg>
