<svg width="122" height="138" viewBox="0 0 122 138" fill="none" xmlns="http://www.w3.org/2000/svg">
<path d="M113.286 8.625H8.68705C3.8942 8.625 0 12.5332 0 17.3309V120.669C0 125.467 3.8942 129.375 8.68705 129.375H113.286C118.079 129.375 122 125.467 122 120.669V17.3309C122 12.5332 118.079 8.625 113.286 8.625ZM36.8723 112.125H18.7902V54.4992H36.8996V112.125H36.8723ZM27.8312 46.6289C22.0308 46.6289 17.3469 41.966 17.3469 36.252C17.3469 30.5379 22.0308 25.875 27.8312 25.875C33.6045 25.875 38.3156 30.5379 38.3156 36.252C38.3156 41.993 33.6317 46.6289 27.8312 46.6289ZM104.653 112.125H86.571V84.0938C86.571 77.4094 86.4348 68.8113 77.1759 68.8113C67.7536 68.8113 66.3103 76.0887 66.3103 83.6086V112.125H48.2281V54.4992H65.575V62.3695H65.8201C68.2438 57.8414 74.1531 53.0707 82.9491 53.0707C101.249 53.0707 104.653 65.0109 104.653 80.5359V112.125Z" fill="url(#paint0_angular_27_737)"/>
<defs>
<radialGradient id="paint0_angular_27_737" cx="0" cy="0" r="1" gradientUnits="userSpaceOnUse" gradientTransform="translate(39.6272 68.9111) rotate(133.007) scale(42.9318 47.4717)">
<stop offset="0.112001" stop-color="#A2EDFD" stop-opacity="0.9"/>
<stop offset="0.528481" stop-color="#CE66AE"/>
</radialGradient>
</defs>
</svg>
