<svg width="139" height="139" viewBox="0 0 139 139" fill="none" xmlns="http://www.w3.org/2000/svg">
<path d="M113.535 48.1071C112.069 47.6184 110.603 47.1569 109.137 46.7225C109.381 45.718 109.598 44.7135 109.815 43.709C113.155 27.5285 110.956 14.5244 103.544 10.235C96.4041 6.13557 84.7574 10.3979 72.975 20.66C71.8076 21.6645 70.6674 22.7233 69.5814 23.7821C68.8484 23.0762 68.0883 22.3703 67.3281 21.6916C54.9756 10.7237 42.5959 6.10842 35.1844 10.425C28.0715 14.5516 25.9539 26.7955 28.9402 42.1073C29.2389 43.6276 29.5646 45.1207 29.9447 46.641C28.2072 47.1297 26.4969 47.6727 24.8951 48.2428C10.3979 53.2653 0 61.1926 0 69.3914C0 77.8617 11.0766 86.3592 26.1439 91.5174C27.3656 91.9246 28.5873 92.3319 29.8361 92.6848C29.4289 94.3137 29.076 95.9155 28.7502 97.5715C25.8996 112.639 28.1258 124.584 35.2387 128.684C42.5688 132.919 54.8941 128.575 66.8937 118.069C67.8439 117.227 68.7941 116.358 69.7443 115.435C70.9389 116.603 72.1877 117.716 73.4365 118.802C85.0561 128.792 96.5398 132.837 103.626 128.738C110.956 124.503 113.345 111.662 110.25 96.024C110.005 94.8295 109.734 93.6078 109.435 92.359C110.304 92.1147 111.146 91.8432 111.987 91.5717C127.652 86.3863 139 77.9975 139 69.3914C139 61.1655 128.304 53.1838 113.535 48.1071ZM76.8029 25.058C86.9021 16.2619 96.3227 12.8141 100.612 15.2846C105.2 17.918 106.965 28.5602 104.087 42.5416C103.897 43.4647 103.707 44.3606 103.463 45.2565C97.4357 43.899 91.3273 42.9217 85.1918 42.3787C81.6625 37.3291 77.8074 32.4967 73.6266 27.9629C74.6854 26.9584 75.717 26.0082 76.8029 25.058ZM45.3922 83.4815C46.7768 85.8434 48.1885 88.2053 49.6816 90.5129C45.4465 90.0514 41.2385 89.3727 37.0848 88.4768C38.2793 84.5674 39.7725 80.5223 41.51 76.3957C42.7588 78.7848 44.0348 81.1467 45.3922 83.4815ZM37.1662 50.8219C41.0756 49.9531 45.2293 49.2473 49.5459 48.7043C48.107 50.9576 46.6953 53.2653 45.365 55.6C44.0348 57.9076 42.7316 60.2696 41.51 62.6586C39.7996 58.6135 38.3607 54.6498 37.1662 50.8219ZM44.6049 69.5272C46.3967 65.7807 48.3514 62.1156 50.4146 58.5049C52.4779 54.8942 54.7041 51.392 57.0389 47.9442C61.1111 47.6455 65.2648 47.4826 69.5 47.4826C73.7352 47.4826 77.916 47.6455 81.9611 47.9442C84.2687 51.3649 86.4678 54.867 88.5582 58.4506C90.6486 62.0342 92.6033 65.6992 94.4494 69.4186C92.6305 73.1651 90.6758 76.8572 88.5854 80.4951C86.5221 84.1059 84.3231 87.608 82.0154 91.083C77.9703 91.3817 73.7623 91.5174 69.5 91.5174C65.2377 91.5174 61.1111 91.3817 57.1203 91.1373C54.7584 87.6895 52.5322 84.1602 50.4418 80.5494C48.3514 76.9387 46.4238 73.2737 44.6049 69.5272ZM93.635 83.4272C95.0195 81.0381 96.3227 78.6219 97.5986 76.1785C99.3361 80.1151 100.856 84.1059 102.187 88.2053C97.9787 89.1555 93.7164 89.8885 89.4269 90.3772C90.893 88.0967 92.2775 85.7619 93.635 83.4272ZM97.5443 62.6586C96.2684 60.2696 94.9652 57.8805 93.6078 55.5457C92.2775 53.2381 90.893 50.9576 89.4541 48.7043C93.825 49.2473 98.0059 49.9803 101.915 50.8762C100.666 54.8942 99.2004 58.8035 97.5443 62.6586ZM69.5543 32.1166C72.4049 35.2115 75.0926 38.4694 77.5902 41.8358C72.2148 41.5914 66.8123 41.5914 61.4369 41.8358C64.0975 38.3336 66.8395 35.0758 69.5543 32.1166ZM38.0621 15.4746C42.623 12.8141 52.7494 16.6149 63.4188 26.0625C64.0975 26.6598 64.7762 27.3114 65.482 27.9629C61.274 32.4967 57.3918 37.3291 53.8354 42.3787C47.6998 42.9217 41.6186 43.8719 35.5916 45.2022C35.2387 43.8176 34.94 42.4059 34.6414 40.9942C32.0895 27.8543 33.7727 17.9451 38.0621 15.4746ZM31.4107 87.0379C30.2705 86.7121 29.1574 86.3592 28.0443 85.9791C22.2617 84.1602 15.6918 81.2824 10.9408 77.5088C8.19883 75.6084 6.35273 72.6764 5.83691 69.3914C5.83691 64.4233 14.4158 58.0705 26.7955 53.7539C28.343 53.211 29.9176 52.7223 31.4922 52.2608C33.3383 58.152 35.5645 63.9346 38.1436 69.5272C35.5373 75.2012 33.284 81.0653 31.4107 87.0379ZM63.0658 113.643C58.5863 117.743 53.401 121.001 47.7541 123.227C44.7406 124.666 41.2656 124.801 38.1707 123.58C33.8541 121.082 32.0623 111.499 34.5057 98.6031C34.8043 97.0828 35.1301 95.5625 35.5102 94.0694C41.5914 95.3725 47.727 96.2684 53.9439 96.7299C57.5275 101.807 61.4641 106.666 65.6721 111.227C64.8033 112.069 63.9346 112.883 63.0658 113.643ZM69.7172 107.046C66.948 104.06 64.1789 100.748 61.4912 97.1914C64.0975 97.3 66.7852 97.3543 69.5 97.3543C72.2963 97.3543 75.0383 97.3 77.7531 97.1643C75.2555 100.612 72.5678 103.897 69.7172 107.046ZM105.2 115.191C104.956 118.503 103.327 121.598 100.721 123.688C96.4041 126.186 87.2008 122.928 77.2645 114.404C76.1242 113.426 74.984 112.367 73.8166 111.281C77.9703 106.693 81.7982 101.834 85.2732 96.7299C91.4902 96.2141 97.6801 95.2639 103.788 93.8793C104.06 94.9924 104.304 96.1055 104.521 97.1914C105.852 103.055 106.069 109.164 105.2 115.191ZM110.141 86.0063C109.381 86.2506 108.621 86.4949 107.834 86.7121C105.933 80.7938 103.598 75.0112 100.911 69.3914C103.517 63.8531 105.716 58.152 107.562 52.3151C108.974 52.7223 110.331 53.1567 111.634 53.591C124.286 57.9348 133.163 64.3961 133.163 69.3371C133.163 74.6582 123.688 81.5268 110.141 86.0063ZM69.5 81.934C76.3686 81.934 81.934 76.3686 81.934 69.5C81.934 62.6315 76.3686 57.066 69.5 57.066C62.6314 57.066 57.066 62.6315 57.066 69.5C57.066 76.3686 62.6314 81.934 69.5 81.934Z" fill="url(#paint0_angular_27_729)"/>
<defs>
<radialGradient id="paint0_angular_27_729" cx="0" cy="0" r="1" gradientUnits="userSpaceOnUse" gradientTransform="translate(45.149 69.4171) rotate(136.533) scale(45.9697 50.8811)">
<stop offset="0.112001" stop-color="#A2EDFD" stop-opacity="0.9"/>
<stop offset="0.528481" stop-color="#CE66AE"/>
</radialGradient>
</defs>
</svg>
