<svg width="135" height="139" viewBox="0 0 135 139" fill="none" xmlns="http://www.w3.org/2000/svg">
<path d="M67.5 2.17188C30.2389 2.17188 0 32.3338 0 69.5C0 106.666 30.2389 136.828 67.5 136.828C104.761 136.828 135 106.666 135 69.5C135 32.3338 104.761 2.17188 67.5 2.17188ZM94.9083 101.237C93.7651 101.237 93.0575 100.884 91.996 100.259C75.0121 90.0514 55.252 89.617 35.7369 93.6078C34.6754 93.8793 33.2873 94.3137 32.498 94.3137C29.8579 94.3137 28.1976 92.2232 28.1976 90.0242C28.1976 87.2279 29.8579 85.8977 31.8992 85.4633C54.1905 80.5494 76.9718 80.9838 96.4053 92.5762C98.0655 93.635 99.0454 94.5852 99.0454 97.0557C99.0454 99.5262 97.1129 101.237 94.9083 101.237ZM102.23 83.4271C100.815 83.4271 99.8619 82.8027 98.8821 82.2869C81.871 72.242 56.504 68.1969 33.9405 74.3053C32.6341 74.6582 31.9264 75.0111 30.7016 75.0111C27.7893 75.0111 25.4214 72.6492 25.4214 69.7443C25.4214 66.8395 26.8367 64.9119 29.6401 64.1246C37.2067 62.007 44.9365 60.4324 56.2591 60.4324C73.9234 60.4324 90.9889 64.8033 104.434 72.785C106.639 74.0881 107.51 75.7713 107.51 78.1332C107.483 81.0652 105.197 83.4271 102.23 83.4271ZM110.667 62.74C109.252 62.74 108.381 62.3871 107.156 61.6812C87.7772 50.1432 53.129 47.374 30.7016 53.6182C29.7218 53.8896 28.497 54.324 27.1905 54.324C23.5978 54.324 20.8488 51.5277 20.8488 47.917C20.8488 44.2248 23.1351 42.1344 25.5847 41.4285C35.1653 38.6322 45.8891 37.302 57.5655 37.302C77.4345 37.302 98.2561 41.4285 113.471 50.2789C115.594 51.5006 116.982 53.1838 116.982 56.4145C116.982 60.1066 113.988 62.74 110.667 62.74Z" fill="url(#paint0_angular_27_727)"/>
<defs>
<radialGradient id="paint0_angular_27_727" cx="0" cy="0" r="1" gradientUnits="userSpaceOnUse" gradientTransform="translate(43.8497 69.4008) rotate(132.785) scale(47.7045 52.719)">
<stop offset="0.112001" stop-color="#A2EDFD" stop-opacity="0.9"/>
<stop offset="0.528481" stop-color="#CE66AE"/>
</radialGradient>
</defs>
</svg>
