<svg width="122" height="139" viewBox="0 0 122 139" fill="none" xmlns="http://www.w3.org/2000/svg">
<g clip-path="url(#clip0_27_735)">
<path d="M122 56.9846C110.007 57.0102 98.3088 53.2779 88.559 46.3152V94.8566C88.5562 103.847 85.8001 112.622 80.6592 120.008C75.5184 127.394 68.238 133.039 59.7917 136.189C51.3453 139.338 42.1357 139.842 33.3946 137.632C24.6535 135.422 16.7976 130.604 10.8776 123.822C4.95756 117.041 1.25566 108.619 0.266969 99.6827C-0.721719 90.7468 1.04995 81.723 5.34502 73.8181C9.64009 65.9132 16.2538 59.5041 24.3016 55.4479C32.3494 51.3918 41.4477 49.882 50.3795 51.1205V75.527C46.2954 74.2453 41.9095 74.2828 37.8481 75.6341C33.7866 76.9854 30.2573 79.5815 27.764 83.0517C25.2707 86.5218 23.941 90.6886 23.9646 94.9571C23.9883 99.2255 25.3642 103.377 27.8958 106.82C30.4274 110.262 33.9853 112.819 38.0615 114.126C42.1377 115.432 46.5237 115.422 50.5934 114.095C54.663 112.768 58.2081 110.194 60.7226 106.739C63.2371 103.284 64.5922 99.1252 64.5947 94.8566V0H88.559C88.5454 2.02056 88.7186 4.03807 89.0764 6.02695C89.9098 10.4603 91.6413 14.6777 94.165 18.4213C96.6887 22.1649 99.9517 25.3562 103.755 27.8C109.168 31.3642 115.513 33.2619 122 33.2568V56.9846Z" fill="url(#paint0_angular_27_735)"/>
</g>
<defs>
<radialGradient id="paint0_angular_27_735" cx="0" cy="0" r="1" gradientUnits="userSpaceOnUse" gradientTransform="translate(39.6272 69.3908) rotate(129.019) scale(46.5117 50.4355)">
<stop offset="0.112001" stop-color="#A2EDFD" stop-opacity="0.9"/>
<stop offset="0.528481" stop-color="#CE66AE"/>
</radialGradient>
<clipPath id="clip0_27_735">
<rect width="122" height="139" fill="white"/>
</clipPath>
</defs>
</svg>
